<?xml version="1.0" encoding="utf-8"?>
<!-- Generator: Adobe Illustrator 16.0.0, SVG Export Plug-In . SVG Version: 6.00 Build 0)  -->
<!DOCTYPE svg PUBLIC "-//W3C//DTD SVG 1.1//EN" "http://www.w3.org/Graphics/SVG/1.1/DTD/svg11.dtd">
<svg version="1.1" id="Calque_1" xmlns="http://www.w3.org/2000/svg" xmlns:xlink="http://www.w3.org/1999/xlink" x="0px" y="0px"
	 width="432px" height="432px" viewBox="0 0 432 432" enable-background="new 0 0 432 432" xml:space="preserve">
<g>
	<g>
		<path fill="#020203" d="M191.629,135.621c-1.586-0.179-1.353,3.923,0.656,3.206C193.973,138.224,193.181,134.846,191.629,135.621z
			 M192.137,138.107c-0.459,0.248-0.707-0.202-0.775-0.589c-0.027-0.161-0.153-1.274,0.279-1.181
			c0.129,0.028,0.224-0.015,0.288-0.086c0.004-0.002,0.007-0.002,0.011-0.004C192.41,135.941,192.803,137.746,192.137,138.107z"/>
		<path fill="#020203" d="M194.582,139.357c-0.057-0.031-0.121-0.052-0.199-0.046c-0.563,0.044-1.121,0.379-1.275,0.947
			c-0.141,0.515,0.098,1.109,0.611,1.309c0.545,0.212,1.186-0.058,1.501-0.53c0.346-0.518,0.27-1.188-0.126-1.653
			C194.94,139.204,194.721,139.237,194.582,139.357z M194.671,140.567c-0.111,0.231-0.415,0.43-0.674,0.335
			c-0.207-0.075-0.263-0.318-0.181-0.511c0.111-0.266,0.412-0.352,0.674-0.373c0.057-0.004,0.104-0.02,0.145-0.042
			C194.736,140.157,194.768,140.366,194.671,140.567z"/>
		<path fill="#020203" d="M190.18,142.672c-0.309-1.939-0.592-3.883-0.924-5.818c-0.173-1.009-0.344-1.841-1.494-1.899
			c-0.094-0.025-0.197-0.012-0.295,0.072c-0.54,0.462-0.36,0.896-0.239,1.577c0.26,1.465,0.562,2.924,0.853,4.383
			c0.055,0.276,0.118,0.55,0.174,0.826c-0.162-0.685-0.321-1.371-0.481-2.057c-0.224-0.955-0.877-7.841-3.11-6.071
			c-0.011,0.008-0.015,0.019-0.023,0.028c-0.233-0.097-0.59,0.151-0.489,0.485c1.67,5.54,3.174,11.125,4.517,16.753
			c0.035,0.15,0.142,0.233,0.26,0.266c0.165,0.187,0.497,0.219,0.587-0.082c0.222-0.743,0.276-1.463,0.237-2.184
			c0.08,0.371,0.152,0.744,0.233,1.115c0.05,0.228,0.275,0.368,0.5,0.272c0.672-0.286,0.706-0.831,0.673-1.506
			C191.057,146.796,190.499,144.688,190.18,142.672z M189.063,149.583c-1.246-5.126-2.625-10.217-4.141-15.271
			c0.063-0.005,0.128-0.022,0.19-0.072c0.628-0.498,1.503,3.701,1.568,3.979c0.333,1.426,0.667,2.852,1.001,4.277
			C188.178,144.622,189.203,147.26,189.063,149.583z M189.195,142.899c-0.229-1.122-0.454-2.245-0.675-3.368
			c-0.097-0.489-0.845-3.118-0.671-3.807c1.158,0.567,1.467,6.077,1.623,7.056c0.102,0.643,0.953,4.224,0.961,5.965
			C190.012,146.798,189.594,144.851,189.195,142.899z"/>
		<path fill="#020203" d="M331.779,286.306c-0.311-0.236-0.606-0.417-0.896-0.572c-0.029-0.081-0.094-0.155-0.198-0.205
			c-1.191-0.564-2.417-0.501-3.635-0.239c-0.073-0.019-0.152-0.029-0.237-0.032c-4.028-0.145-7.995-0.7-11.87-1.832
			c-1.688-0.493-3.353-1.08-4.975-1.762c-0.698-0.294-2.485-1.31-3.774-1.845c0-0.008,0.002-0.014,0.001-0.021
			c-0.896-4.633-2.331-9.118-3.8-13.595c-1.209-5.782-2.996-11.437-5.422-16.844c-1.16-2.584-2.488-5.545-5.097-6.979
			c-1.641-0.902-3.535-0.824-5.028-2.052c-1.628-1.338-2.955-3.302-4.254-4.951c-2.739-3.48-4.4-7.306-6.594-11.088
			c-1.732-2.988-4.236-5.263-6.842-7.475c-6.734-5.717-13.511-11.383-20.274-17.065c-0.079-0.092-0.159-0.184-0.236-0.276
			c-3.149-3.925-4.285-8.926-5.306-13.785c-0.018-0.088-0.064-0.149-0.119-0.196c-0.463-1.866-1.057-3.711-1.567-5.548
			c-1.217-4.381-2.46-8.719-4.26-12.84c2.834,1.436,6.463,1.608,9.536,2.828c2.926,1.162,4.696,3.961,7.764,4.895
			c2.708,0.825,5.615,0.455,8.371-0.007c5.061,5.297,11.389,8.813,18.595,10.349c0.221,0.047,0.456-0.014,0.657-0.136
			c2.084,2.445,4.573,5.82,7.558,7.435c-0.855,0.704-1.453,1.604-1.431,2.947c0.021,1.371,0.666,2.297,1.596,2.918
			c0.095,0.109,0.195,0.215,0.307,0.316c1.504,1.364,3.854,1.692,5.568,0.715c0.129,0.094,0.263,0.183,0.403,0.267
			c0.96,0.571,2.063,0.731,3.095,0.531c1.013,0.18,2.058,0.225,3.056,0.179c0.033-0.001,0.062-0.01,0.093-0.014
			c0.405,0.157,0.84,0.267,1.303,0.318c4.457,0.492,7.175-3.775,7.483-7.716c0.451-5.755-2.985-10.95-6.595-15.1
			c-1.687-1.94-5.379-6.8-8.747-8.311c-0.071-0.37-0.163-0.729-0.274-1.078c-0.434-1.628-1.001-3.204-2.08-4.531
			c-2.433-5.588-6.133-10.544-10.928-14.387c-3.485-2.792-7.135-4.33-9.816-8.04c-1.84-2.545-4.164-4.188-7.354-4.502
			c-2.628-0.26-4.136-0.333-6.361-2.057c-1.463-1.132-2.846-2.309-4.412-3.309c-3.021-1.93-6.299-3.449-9.729-4.492
			c-6.574-1.999-13.479-2.273-20.163-0.823c-0.605-1.929-1.258-3.842-1.948-5.743c-0.592-2.933-3.274-5.783-5.358-7.472
			c-0.018-0.015-0.038-0.019-0.057-0.029c-0.325-0.268-0.655-0.531-1.005-0.775c-0.051-0.036-0.104-0.051-0.155-0.059
			c-2.938-5.58-7.953-9.711-13.917-11.886c-2.238-0.816-4.564-1.362-6.923-1.678c-0.315-1.049-0.728-2.059-1.225-3.041
			c-0.68-2.248-2.258-4.098-4.466-5.335c-4.08-2.287-8.933-1.425-13.199-0.192c-9.964,2.877-19.852,6.547-29.127,11.198
			c-9.163,4.593-17.828,10.337-24.973,17.735c-1.656,1.715-5.113,4.427-4.962,7.233c-0.023,0.091-0.043,0.182-0.061,0.272
			c-0.165,0.484-0.2,0.999-0.103,1.51c-0.119,0.24-0.158,0.526-0.059,0.838c6.629,20.932,13.953,41.634,21.953,62.081
			c-0.316,1.226-0.539,2.476-0.656,3.731c-0.133,1.436,0.041,2.948-0.229,4.367c-0.369,1.937-1.563,3.032-2.486,4.64
			c-2.658,4.633-1.15,11.273,0.503,15.984c1.206,3.437,2.993,6.59,5.234,9.395c0.913,3.665,4.154,6.341,7.219,8.565
			c0.108,0.079,0.217,0.084,0.31,0.052c0.174,0.146,0.34,0.298,0.519,0.44c0.04,0.031,0.081,0.05,0.121,0.063
			c0.12,0.111,0.234,0.228,0.358,0.338c0.058,0.05,0.116,0.069,0.174,0.077c1.3,3.856,4.199,7.192,7.721,9.775
			c-0.103,0.139-0.174,0.313-0.189,0.535c-0.383,5.563,0.372,11.082,2.479,16.261c1.658,4.077,4.259,9.104,8.343,11.188
			c3.882,1.979,9.478,1.443,13.519,0.196c0.04-0.013,0.076-0.029,0.116-0.041c-0.639,2.732-0.72,5.532,0.471,8.095
			c-0.02,0.095-0.03,0.19-0.027,0.286c-0.556,1.894-0.062,3.887,1.284,5.345c-0.012,2.54-2.443,2.844-3.181,5.116
			c-0.717,2.209,0.161,5.029,0.506,7.217c0.854,5.41,1.316,11.658,3.415,16.742c0.816,1.975,2.512,3.27,4.477,4.193
			c0.675,1.67,1.664,3.128,2.931,4.396c0.389,1.789,0.995,3.488,1.823,5.109c0.072,0.177,0.141,0.355,0.216,0.532
			c0.035,0.083,0.091,0.131,0.152,0.163c0.028,0.051,0.059,0.1,0.087,0.149c-1.324,3.212-1.084,7.488-1.192,10.585
			c-0.185,5.293-0.732,12.09,1.025,17.139c1.204,3.46,5.134,4.871,8.365,5.818c3.96,1.16,8.42,1.581,12.447,0.494
			c0.038-0.01,0.071-0.022,0.108-0.033c2.175-0.319,4.348-0.928,5.896-2.519c0.119-0.083,0.221-0.188,0.29-0.318
			c0.016-0.018,0.032-0.033,0.047-0.051c1.41-1.692,1.626-4.104,1.629-6.415c0.579-3.681,0.239-7.88,0.34-11.705
			c0.211-8.009,1.491-17.777-3.246-24.733c0.008-0.01,0.015-0.019,0.021-0.028c0.005-0.003,0.01-0.005,0.014-0.008
			c0.026,0.326,0.512,0.453,0.688,0.1c0.298-0.599,0.564-1.207,0.814-1.819c0.766-1.413,1.132-3.218,1.463-4.524
			c0.646-2.549,0.979-5.154,1.184-7.771c0.084-0.944,0.153-1.89,0.214-2.835c0.906-4.688,1.305-9.479,1.327-14.297
			c0.033-0.583,0.055-1.166,0.064-1.749c0.107-1.191,0.188-2.386,0.177-3.582c-0.013-1.306-0.189-2.563-0.42-3.819
			c0.741-5.171,0.549-10.367-0.583-15.468c1.642-2.394,2.881-5.07,3.609-7.926c1.007-3.952,0.893-8.071,0.115-12.111
			c0.222-0.021,0.414-0.092,0.59-0.239c0.051,0.005,0.104,0.003,0.158-0.018c0.252-0.095,0.495-0.204,0.731-0.324
			c0.02,0.049,0.049,0.098,0.094,0.141c0.186,0.173,0.371,0.346,0.557,0.519c0.457,0.535,0.992,1.026,1.567,1.487
			c0.125,0.229,0.326,0.411,0.596,0.484c1.462,1.303,2.971,2.547,4.563,3.692c5.209,5.073,11.596,8.954,14.841,15.826
			c1.577,3.339,3.326,7.257,7.288,8.232c2.331,0.574,3.913-0.668,5.478,1.769c1.271,1.979,2.415,3.917,3.978,5.713
			c3.988,4.58,8.379,8.924,13.818,10.225c-0.034,0.078-0.035,0.173,0.018,0.275c0.173,0.332,0.346,0.665,0.519,0.997
			c0.004,0.009,0.009,0.017,0.013,0.025c0.107,0.207,0.215,0.414,0.322,0.621c0.042,0.079,0.102,0.126,0.166,0.157
			c0.026,0.036,0.051,0.072,0.077,0.108c1.399,3.273,2.924,6.485,4.632,9.61c1.218,2.227,2.408,4.549,4.535,6.043
			c2.516,1.769,5.836,2.774,8.704,3.804c3.292,1.181,6.71,2.143,10.203,2.453c5.715,0.507,11.788-0.737,16.11-4.708
			c1.617-1.485,2.914-3.213,4-5.075c0.842-1.179,1.501-2.521,2.137-3.771c0.85-1.676,1.525-3.401,1.912-5.209
			c0.203-0.149,0.344-0.389,0.359-0.728C337.08,293.904,335.477,289.127,331.779,286.306z M291.128,194.237
			c0.176-0.2,0.374-0.375,0.583-0.537c0.552,0.349,1.177,0.582,1.815,0.655c0.025,0.445,0.112,0.887,0.243,1.323
			c0.093,0.568,0.255,1.12,0.492,1.635C292.357,197.154,289.201,196.44,291.128,194.237z M294.992,188.208
			c-0.057,0.245-0.159,0.487-0.29,0.718c-0.319,0.354-0.639,0.708-0.959,1.062c-0.146,0.103-0.298,0.196-0.455,0.266
			c-0.912,0.404-1.905,0.329-2.819,0.012c-0.143-0.099-0.283-0.197-0.416-0.31c-0.616-0.437-1.155-0.997-1.678-1.558
			c1.719-1.757,3.795-2.995,6.251-2.95c0.01,0.218,0.046,0.44,0.083,0.65C294.84,186.85,295.177,187.426,294.992,188.208z
			 M296.659,196.527c-0.317-0.341-0.565-0.755-0.741-1.198c1.006-0.45,2.051-0.686,3.153-0.696c0.076,1.248,0.268,2.462,0.77,3.46
			C298.642,197.886,297.496,197.424,296.659,196.527z M296.67,193.236c0.174-0.156,0.338-0.32,0.489-0.499
			c0.093-0.099,0.17-0.205,0.25-0.311c0.05-0.067,0.103-0.131,0.148-0.201c0.068-0.103,0.13-0.207,0.188-0.315
			c0.266-0.449,0.475-0.929,0.625-1.426c0.313,0.754,0.461,1.623,0.55,2.388C298.144,192.851,297.387,192.973,296.67,193.236z
			 M309.11,193.618c-0.211,1.311-0.728,2.627-1.69,3.557c-2.368,2.292-4.863,0.971-6.087-1.737c-0.118-0.26-0.189-0.546-0.244-0.842
			c0.08-0.056,0.161-0.112,0.242-0.167l0.001,0c2.563-0.851,5.128-1.537,7.823-1.2C309.139,193.36,309.131,193.489,309.11,193.618z
			 M295.145,171.616c0.957,1.356,3.447,2.857,4.285,3.675c1.56,1.523,3.054,3.135,4.443,4.814c2.509,3.03,4.947,6.739,5.322,10.748
			c-0.113-0.015-0.228-0.024-0.341-0.028c-2.577-0.09-5.4,0.813-7.923,1.465c-0.021-0.614-0.066-1.216-0.23-1.755
			c-0.181-0.599-0.416-1.14-0.699-1.627c0.014-0.066,0.013-0.14-0.027-0.222c-0.483-1.009-2.532-4.511-4.223-4.515
			c-0.154-0.033-0.309-0.057-0.464-0.077c-0.901-0.258-1.854-0.204-2.79,0.062c-0.786,0.152-1.542,0.447-2.246,0.86
			c-0.969,0.356-2.653,1.091-3.023,2.15c-1.18-1.258-2.342-2.535-3.506-3.808C285.246,177.649,289.605,173.389,295.145,171.616z
			 M218.149,119.22c0.399,0.643,0.759,1.324,1.082,2.025c0.114,0.356,0.211,0.663,0.289,0.889c0.909,2.627,1.633,5.313,2.271,8.017
			c1.101,4.657,2.588,9.705,2.542,14.551c-0.008,0.209-0.011,0.417-0.021,0.626c-0.528,2.43-1.738,4.752-4.059,7.027
			c-7.999,7.84-21.137,11.554-31.897,7.783c-6.58-2.305-8.023-8.254-10.126-14.201c-1.322-3.739-2.622-6.83,0.037-10.303
			c1.79-2.337,3.772-4.521,5.923-6.532c7.691-7.196,17.279-11.997,27.565-13.994C214.394,115.501,216.396,117.244,218.149,119.22z
			 M212.945,110.736c0.41,0.579,0.793,1.179,1.148,1.8c-11.262,1.632-21.928,6.513-30.414,14.132
			c-2.041,1.833-3.957,3.815-5.719,5.92c-1.078,1.289-2.586,2.847-3.408,4.521c0.107-1.855,0.721-3.611,1.664-5.262
			c1.122-1.686,2.598-3.209,3.921-4.458c2.938-2.771,6.206-5.247,9.559-7.493C196.697,115.207,204.53,111.724,212.945,110.736z
			 M198.917,101.505c1.7,0.434,3.366,0.996,4.962,1.743c3.105,1.453,5.812,3.503,7.957,6.053c-6.016,0.968-11.811,2.895-17.164,5.69
			c-2.945,1.471-5.787,3.156-8.504,5.035c-3.646,2.523-7.502,5.349-10.027,9.062c-1.528,2.248-2.246,4.541-2.348,6.936
			c-0.1,0.745-0.088,1.503,0.061,2.268c0.017,0.342,0.057,0.688,0.108,1.037c-0.046,2.102,1.235,4.445,1.884,6.281
			c1.125,3.182,2.055,6.557,3.554,9.587c4.718,9.533,18.567,9.64,27.442,7.168c7.072-1.969,15.463-6.709,18.759-13.682
			c-0.962,13.3-16.67,21.206-29.321,20.487c-10.348-0.588-19.984-5.608-27.158-12.955c-0.011-0.036-0.02-0.072-0.043-0.107
			c-1.612-2.59-3.227-5.18-4.84-7.77c-0.013-0.02-0.029-0.03-0.044-0.046c-0.524-1.057-1.132-2.106-1.526-3.1
			c-2.094-5.275-2.709-11.115-1.861-16.722c1.965-12.981,12.21-23.253,24.909-26.038c0.257-0.056,0.452-0.18,0.592-0.341
			c0.494-0.081,0.989-0.153,1.485-0.22c0.668-0.037,1.333-0.116,2-0.235C192.825,101.337,195.872,101.294,198.917,101.505z
			 M143.574,137.486c-0.854,3.056-0.166,6.781,0.508,9.615c0.299,1.256,0.664,2.491,1.053,3.719
			c0.719,3.476,1.698,6.897,2.771,10.287c0.323,2.176,0.798,4.318,1.412,6.441c0.022,0.149,0.045,0.299,0.067,0.449
			c-0.202,0.524-0.369,1.065-0.499,1.622c-1.438-4.985-2.877-9.97-4.316-14.955c-0.895-3.099-1.794-6.196-2.683-9.297
			c-0.605-2.113-2.245-8.386,0.214-9.924c0.74-0.021,1.48-0.093,2.221-0.24c0.046,0.009,0.092,0.019,0.139,0.03
			c-0.184,0.303-0.341,0.619-0.469,0.95c-0.182,0.295-0.354,0.599-0.514,0.917C143.402,137.252,143.464,137.394,143.574,137.486z
			 M146.843,151.199c-0.236-1.152-0.461-2.307-0.663-3.466c-0.629-3.617-1.438-7.865-0.196-11.422
			c0.584-0.883,1.336-1.694,2.108-2.437c3.179-1.555,5.961-3.913,9.029-5.716c-0.005,0.269,0.005,0.539,0.008,0.809
			c-0.366,3.398,0.164,6.875,0.854,10.212c0.942,4.56,2.47,8.969,4.478,13.166c-1.063,1.587-3.592,2.915-4.544,4.388
			c-1.226,1.896-1.062,3.266-2.93,4.526c-1.67,1.126-3.108,2.504-4.2,4.096C149.473,160.637,148.158,155.918,146.843,151.199z
			 M167.25,109.491c0.003-0.002,0.006-0.004,0.008-0.006c0,0-0.002,0.001-0.002,0.002
			C167.254,109.488,167.252,109.489,167.25,109.491z M177.729,91.991c5.323-1.417,15.125-1.753,14.809,6.289
			c-0.001,0.035,0.004,0.065,0.006,0.099c-0.527-0.028-1.056-0.047-1.584-0.054c-1.924-0.025-4.01-0.077-5.643,0.783
			c-0.064-0.043-0.145-0.068-0.246-0.05c-1.647,0.277-3.226,0.736-4.754,1.317c-6.852,2.29-13.096,6.198-17.703,11.846
			c-0.051,0.023-0.1,0.057-0.141,0.113c-0.134,0.177-0.258,0.357-0.386,0.536c-0.027,0.036-0.057,0.069-0.085,0.104
			c-0.011,0.014-0.012,0.028-0.021,0.043c-1.508,2.144-2.65,4.473-3.423,6.98c-0.117,0.015-0.223,0.079-0.261,0.213
			c-0.503,1.785-0.837,3.589-1.019,5.405c-3.464,1.812-6.402,4.431-9.916,6.208c-5.73,2.897-11.301,0.542-17.013-1.16
			c-0.505-0.15-1.087-0.289-1.704-0.427c-0.999-0.796-1.767-1.834-2.268-3.065c-0.004-0.187-0.001-0.371,0.006-0.555
			c0.331-1.739,1.422-3.75,2.271-5.155c0.352-0.478,0.726-0.942,1.111-1.397c1.107-1.065,2.255-2.09,3.434-3.075
			c4.466-3.731,9.328-7.01,14.263-10.084C157.03,100.942,167.192,95.982,177.729,91.991z M124.286,120.275
			c3.472-3.553,7.324-6.732,11.401-9.563c3.961-2.75,8.135-5.165,12.437-7.333c-4.178,2.71-8.153,5.773-12.044,8.761
			c-3.687,2.831-7.278,5.883-10.088,9.616c-0.679,0.902-1.439,2.116-1.897,3.364c-0.501,0.796-0.823,1.618-0.775,2.419
			c0.036,0.607,0.268,1.101,0.616,1.507c-0.719-0.252-1.373-0.547-1.902-0.907C117.857,125.301,122.196,122.414,124.286,120.275z
			 M124.953,145.244c-1.076-3.193-2.139-6.391-3.183-9.595c1.405,0.346,2.659,0.656,3.534,1.629c0.212,0.781,0.35,1.609,0.536,2.374
			c0.251,1.023,0.501,2.046,0.751,3.069c0.102,0.417,0.326,0.938,0.334,1.364c0.053,0.084,0.092,0.164,0.122,0.239
			c-0.04,0.237-0.101,0.479-0.191,0.689c-0.04,0.021-0.066,0.045-0.11,0.065c-0.003,0.006-0.006,0.011-0.009,0.017
			c-0.108,0.047-0.235,0.087-0.392,0.114c-0.155,0.208-0.301,0.342-0.441,0.409c-0.192-0.037-0.412-0.129-0.671-0.309
			C125.135,145.24,125.037,145.225,124.953,145.244z M125.421,146.622c0.502,0.194,1.039,0.297,1.518,0.186
			c0.686,0.225,1.318,0.201,1.853-0.856c0.89-1.759-0.771-4.806-1.285-6.437c-0.468-1.486-0.816-4.771-2.445-5.547
			c-0.398-0.19-0.773-0.179-1.145-0.109c-0.338,0-0.656,0.067-0.989,0.08c-0.083-0.055-0.165-0.114-0.245-0.18
			c-0.895-1.087-1.457-2.337-1.711-3.754c2.89,1.294,6.232,1.95,9.259,2.851c3.06,0.912,6.236,2.092,9.442,2.474
			c-2.069,2.867-0.979,6.615-0.097,9.698c2.851,9.968,5.749,19.922,8.624,29.882c0.059,0.203,0.163,0.363,0.29,0.491
			c-0.103,0.604-0.308,1.213-0.716,1.87c-0.77,1.237-1.621,2.027-2.593,3.056c-1.972,2.087-3.555,4.501-4.686,7.141
			c-0.044,0.103-0.077,0.21-0.12,0.313C135.088,174.171,130.103,160.449,125.421,146.622z M148.473,232.455
			c-0.01,0.122-0.021,0.243-0.03,0.365c-1.056-0.842-2.056-1.741-2.992-2.698c-0.307-0.948-0.482-1.937-0.516-2.936
			c0.178-0.885,0.356-1.769,0.534-2.652c0.197-0.624,0.428-1.236,0.691-1.836c1.174-2,2.508-3.89,4.152-5.488
			c0.691-0.589,1.422-1.135,2.188-1.634c0.166-0.084,0.33-0.172,0.499-0.251c4.158-1.938,8.993-2.108,13.224-0.485
			c0.663,0.923,1.327,1.846,1.99,2.769c-0.087,0.243-0.215,0.463-0.374,0.662c-0.561-0.241-1.143-0.416-1.733-0.561
			c-1.168-0.377-2.366-0.57-3.558-0.537c-3.414-0.141-6.848,1.031-9.377,3.437c-1.021,0.972-1.823,2.081-2.462,3.276
			C148.996,226.27,148.145,229.317,148.473,232.455z M166.096,213.404c0.002,0,0.004,0.001,0.006,0.001c0,0.001,0,0.002,0,0.004
			C166.1,213.408,166.098,213.406,166.096,213.404z M170.321,202.776c0.008-0.234,0.03-0.461,0.064-0.685
			c0.048-0.207,0.101-0.413,0.156-0.617c0.052-0.083,0.109-0.163,0.16-0.246c0.081-0.088,0.145-0.192,0.188-0.311
			c1.021-1.699,1.901-3.471,2.661-5.305c0.306-0.522,0.634-0.989,0.995-1.24c1.814-1.259,1.384,0.049,0.998,1.378
			c-0.26,0.894-0.537,1.774-0.737,2.685c-0.971,4.408-1.011,9.132-0.874,13.63c0.15,4.962,2.356,9.276,2.66,14.188
			c-0.186-0.288-0.399-0.563-0.659-0.819c-0.468-0.458-1.058-0.772-1.685-1.044c0.106-0.096,0.162-0.239,0.078-0.389
			c-0.099-0.177-0.207-0.345-0.311-0.516c-0.51-1.619-1.593-2.813-2.92-3.779c0.071-0.763,0.063-1.503,0.02-2.097
			c-0.113-1.561-0.57-3.096-1.312-4.471c-0.678-1.256-2.62-2.844-1.909-4.06c0.432-0.739,1.617-1.173,2.113-2.079
			C170.868,205.435,170.269,204.388,170.321,202.776z M151.953,232.284c1.786-5.068,5.639-10.56,11.327-10.198
			c0.885,0.36,1.758,0.802,2.704,1.236c-0.128,0.534-0.256,1.068-0.383,1.603c-0.139-0.101-0.346-0.108-0.493,0.066
			c-0.571,0.677-0.55,1.534,0.372,1.701c0.046-0.034,0.102-0.062,0.179-0.063c2.103-0.06,4.439-0.315,6.534,0.197
			c1.796,0.273,4.107,1.068,3.311,3.059c0,1.146-0.572,2.403-1.625,2.805c-0.033,0.013-0.068,0.017-0.102,0.027
			c-0.031,0.068-0.084,0.13-0.176,0.167c-1.361,0.549-3.172,0.162-4.568-0.336c-0.293,0.009-0.585,0.048-0.876,0.12
			c0.002,0.065,0.003,0.13,0.005,0.194c1.818,0.941,3.611,1.264,5.617,1.739c0.197,0.048,0.379,0.108,0.551,0.178
			c0.251-0.021,0.471,0.012,0.662,0.109c0.111-0.021,0.231,0.002,0.328,0.105c0.948,1.02,2.073,3.64,0.57,4.715
			c-0.401,0.288-0.936,0.326-1.489,0.266c-0.072,0.031-0.153,0.046-0.245,0.021c-0.992-0.275-2.045-0.161-2.957-0.64
			c-0.277-0.05-0.555-0.1-0.831-0.149c-0.073-0.013-0.126-0.046-0.172-0.085c-0.742-0.174-1.46-0.416-2.146-0.78
			c-0.126-0.005-0.251-0.009-0.376-0.013c-0.318-0.011-0.591,0.443-0.254,0.643c0.928,0.548,1.88,1.026,2.855,1.441
			c0.051,0.047,0.109,0.092,0.176,0.133c0.703,0.425,1.487,0.67,2.276,0.753c1.005,0.302,2.03,0.542,3.083,0.712
			c0.119,0.02,0.215-0.03,0.283-0.107c0.013,0.047,0.006,0.096,0.012,0.144c0.174,0.024,0.335,0.158,0.315,0.383
			c-0.135,1.565-0.606,3.466-2.53,3.453c-0.798-0.005-1.642-0.229-2.487-0.565c-1.563-0.494-3.048-1.164-4.455-2.009
			c-0.188-0.088-0.375-0.179-0.559-0.275c-0.172-0.002-0.321,0.027-0.445,0.087c-0.918,1.396,1.917,2.629,2.874,3.149
			c0.078,0.043,0.158,0.079,0.236,0.121c0.293,0.182,0.594,0.354,0.905,0.515c0.302,0.192,0.651,0.335,1.04,0.427
			c0.802,0.359,1.611,0.7,2.422,1.059c0.895,0.395,1.141,0.312,1.033,1.392c-0.021,0.229-0.057,0.407-0.103,0.556
			c-0.021,0.046-0.043,0.092-0.065,0.136c-0.55,0.485-1.168,0.878-1.847,1.182c-0.396,0.154-0.8,0.29-1.206,0.417
			c-1.604-0.271-3.439-1.098-4.588-1.514C158.941,247.77,150.542,240.97,151.953,232.284z M209.666,191.241
			c1.688-2.52,5.974-1.438,6.027,2.199c0.047,3.143-2.35,4.825-5.072,5.226c0.155-0.202,0.306-0.409,0.438-0.635
			C212.439,195.651,211.884,192.562,209.666,191.241z M217.256,190.762c-1.568-3.271-5.673-3.88-8.211-1.983
			c1.209-1.309,2.848-2.182,4.677-2.253c0.069,0.01,0.135,0.013,0.205,0.026c2.619,0.469,5.274,2.16,6.079,4.683
			c0.125,2.633-1.198,5.534-3.223,7.239c-0.72,0.414-1.512,0.727-2.338,0.924C217.324,197.65,219.056,194.516,217.256,190.762z
			 M209.145,197.092c-0.789,1.33-2.53,2.128-3.835,2.833c-1.743,0.943-3.438,1.815-5.001,3.055
			c-3.218,2.554-5.702,5.937-7.728,9.479c-2.131,3.726-3.773,7.686-5.555,11.583c-1.597,3.491-4.067,10.187-8.076,12.154
			c-0.144,0.122-0.281,0.25-0.43,0.368c-0.192,0.154-0.568,0.058-0.578-0.224c-0.03-0.834-0.119-1.655-0.317-2.467
			c-0.097-0.392-0.402-1.04-0.32-1.479c0.063-0.336,0.192-0.451,0.443-0.656c0.445-0.365,0.874-0.668,1.261-1.043
			c-0.013-0.104,0.012-0.216,0.104-0.308c0.904-0.904,1.704-1.894,2.42-2.943c0.032-0.061,0.065-0.118,0.098-0.179
			c2.292-4.344,4.062-8.964,6.243-13.365c4.398-8.875,10.448-17.387,20.214-20.676c0.172-0.058,0.304-0.143,0.403-0.244
			C210.006,193.648,209.866,195.875,209.145,197.092z M196.549,235.055c-0.525,8.016-1.43,17.049-5.358,24.168
			c-1.361,2.466-3.368,5.033-5.772,7.061c-0.086-0.056-0.182-0.104-0.299-0.137c-1.063-0.293-2.085-0.652-3.071-1.065
			c-0.182-0.788-0.362-1.577-0.543-2.364c0.813,0.832,1.779,1.534,2.823,1.796c0.716,0.179,1.378-0.067,1.264-0.925
			c-0.064-0.487-0.457-0.733-0.785-1.051c-0.941-0.913-1.872-1.735-2.635-2.818c-0.771-1.095-1.394-2.277-1.934-3.498
			c-0.006-0.008-0.013-0.012-0.018-0.021c-1.494-2.435-2.275-5.113-2.266-7.974c0.004-1.211-0.094-2.592,0.285-3.75
			c0.625-1.908,0.959-3.327,0.064-5.255c-0.08-0.175-0.012-0.323,0.107-0.411c-0.012-0.032-0.021-0.064-0.033-0.097
			c4.598-1.045,7.164-6.747,9.078-10.58c2.572-5.15,4.559-10.635,7.538-15.565c-0.004,0.249,0.007,0.492,0.029,0.731
			c0,0.003-0.001,0.005-0.001,0.008c-0.005,0.045,0.003,0.083,0.011,0.121c0.029,0.239,0.073,0.478,0.13,0.715
			c-1.168,2.095-0.617,4.919,0.755,6.762c0.225,0.302,0.513,0.416,0.795,0.408c0.021,0.175,0.048,0.348,0.079,0.519l0.008,0.673
			C196.099,226.593,196.792,231.343,196.549,235.055z M163.756,253.716c-0.294-0.88-0.617-1.722-0.989-2.502
			c0.724,0.357,1.454,0.683,2.187,0.979c0.001,0.001,0.001,0.002,0.001,0.002c4.415,7.021,10.37,13.086,18.378,15.639
			c-0.938,0.604-1.92,1.11-2.933,1.497C173.615,265.748,167.648,260.354,163.756,253.716z M177.391,270.078
			c-1.708,0.192-3.467-0.005-5.232-0.727c-3.77-1.541-5.371-5.286-6.576-9.321C168.884,264.031,172.924,267.414,177.391,270.078z
			 M181.131,264.669c0.006-0.007,0.011-0.014,0.016-0.021c0.006,0.007,0.009,0.017,0.015,0.023c0.001,0.005,0.003,0.009,0.004,0.013
			C181.154,264.68,181.143,264.675,181.131,264.669z M197.725,214.448c1.211-1.007,3.169-1.208,4.61-0.677
			c2.714,1,3.204,4.598,1.249,6.471c-0.307-1.972-1.623-3.738-3.871-3.673c-1.479,0.043-2.319,0.807-2.732,1.851
			C196.469,217.058,196.55,215.424,197.725,214.448z M203.516,228.085c0.182-1.843,0.354-3.778,0.143-5.592
			c0.252,0.04,0.523-0.004,0.785-0.182c0.23-0.156,0.437-0.328,0.633-0.506c0.074,0.143,0.188,0.275,0.361,0.386
			c10.259,6.525,19.211,17.456,17.144,30.355c-0.946,5.903-4.2,11.604-9.563,14.519c-6.335,3.441-13.918,2.606-20.815,1.751
			c5.366-7.399,8.402-15.476,9.71-24.564C202.682,238.892,202.982,233.471,203.516,228.085z M201.768,208.146
			c-0.024,0.011-0.037,0.027-0.058,0.041c-0.007,0.003-0.014,0.002-0.021,0.007c-0.027,0.016-0.052,0.034-0.079,0.049l-0.001,0
			c0,0-0.001,0.001-0.002,0.002c-0.008,0.005-0.016,0.01-0.023,0.014c-1.342,0.345-2.266,1.802-2.637,3.301
			c-0.726,0.166-1.423,0.432-2.04,0.81c0.003-0.009,0.009-0.014,0.012-0.023c0.161-0.622,0.359-1.247,0.593-1.852
			c1.312-2.913,4.086-5.252,7.49-3.915c1.375,0.54,2.609,1.748,3.387,3.183c0.014,0.036,0.028,0.071,0.041,0.107
			c0.468,1.298,0.38,2.572-0.207,3.71l-0.145,0.216c-0.219-0.443-0.438-0.885-0.656-1.328
			C206.894,209.78,204.702,206.844,201.768,208.146z M178.285,257.858c0.29,0.995,0.693,1.938,1.197,2.856
			c0.05,1.236,0.349,2.43,0.898,3.591c-4.88-2.464-8.8-6.352-12.015-10.855c1.847,0.646,4.005,1.272,5.68,0.926
			c0.386,0.008,0.733-0.138,1.05-0.398c0.143-0.084,0.279-0.179,0.408-0.289c0.463,0.12,0.972-0.022,1.381-0.361
			C177.127,254.895,177.592,256.409,178.285,257.858z M172.452,275.257c-5.369-0.893-8.228-6.346-10.11-10.953
			c-1.901-4.656-2.604-9.622-2.328-14.62c0.117,0.073,0.236,0.142,0.354,0.213c-0.284,0.264-0.399,0.665-0.133,1.115
			c0.201,0.338,0.387,0.688,0.563,1.047c-0.104,0.234-0.107,0.52,0.051,0.826c0.337,0.652,0.697,1.288,1.068,1.918
			c1.965,5.749,2.594,12.667,8.035,15.853c3.146,1.842,6.766,1.901,10.153,0.902c0.361,0.095,0.669-0.038,0.876-0.282
			c2.579-0.909,4.985-2.408,6.889-4.193c6.009-5.636,8.473-13.513,9.549-21.455c0.625-4.608,1.279-9.189,1.399-13.844
			c0.062-2.346-0.229-5.211,0.024-7.864c0.219-0.09,0.438-0.188,0.695-0.265c0.785-0.23,1.471-0.126,2.188,0.242
			c0.177,2.978-0.587,6.367-0.796,8.759c-0.316,3.611-0.58,7.232-1.077,10.825c-1.072,7.757-3.312,15-7.638,21.549
			c-1.747,2.644-3.599,5.532-6.218,7.393C182.303,275.047,176.892,275.995,172.452,275.257z M188.731,274.476
			c7.972,2.693,16.649,4.303,24.739,1.168c2.852-1.104,5.453-2.725,7.695-4.734c0.208,0.443,0.384,0.896,0.52,1.354
			c0.371,1.697,0.361,3.4-0.009,5.067c-0.236,0.694-0.536,1.368-0.926,2.013c-10.987,4.045-22.61,5.634-34.301,4.672
			c-0.329-0.331-0.665-0.653-1.007-0.968c-0.218-0.346-0.41-0.706-0.58-1.076c-0.291-1.543-0.479-3.09-0.443-4.646
			c0.006-0.034,0.012-0.067,0.018-0.102C185.047,275.445,186.642,274.584,188.731,274.476z M195.927,358.153
			c-0.214-1.93-0.349-3.869-0.435-5.811c0.089-0.218,0.194-0.436,0.314-0.633c0.205,0.056,0.398,0.056,0.568,0.006
			c0.041,3.167,0.265,6.323,0.534,9.479C196.408,360.339,196.059,359.342,195.927,358.153z M197.831,362.434
			c-0.239-3.615-0.479-7.23-0.717-10.846c0.136,0.027,0.272,0.057,0.41,0.089c0.091,0.193,0.162,0.39,0.23,0.536
			c0.048,0.103,0.08,0.221,0.124,0.327c0.395,3.655,0.789,7.31,1.185,10.965C198.614,363.188,198.202,362.831,197.831,362.434z
			 M201.188,364.665c0.078-0.165,0.118-0.356,0.095-0.579c-0.419-3.875-0.838-7.75-1.257-11.626c0.35,0.127,0.699,0.256,1.048,0.386
			c0.04,0.297,0.08,0.594,0.121,0.892c0.14,3.782,0.466,7.549,0.979,11.3C201.838,364.923,201.51,364.8,201.188,364.665z
			 M202.934,365.279c0.113-3.9-0.498-7.783-1.032-11.645c-0.004-0.126-0.013-0.251-0.017-0.377c-0.002-0.05-0.016-0.09-0.031-0.126
			c0.442,0.16,0.883,0.313,1.32,0.449c0.123,4.002,0.391,7.994,0.797,11.977C203.621,365.473,203.275,365.38,202.934,365.279z
			 M206.116,365.998c-0.465-0.079-0.929-0.17-1.392-0.269c-0.213-3.983-0.487-7.961-0.816-11.937
			c0.287,0.077,0.573,0.147,0.855,0.202c0.118,0.022,0.24,0.045,0.36,0.067c0.417,3.992,0.836,7.983,1.254,11.975
			C206.291,366.023,206.202,366.013,206.116,365.998z M208.561,366.305c-0.414-3.954-0.828-7.908-1.242-11.863
			c0.26,0.039,0.518,0.079,0.779,0.112c0.054,0.317,0.107,0.634,0.16,0.95c0.382,3.628,0.83,7.247,1.36,10.856
			C209.265,366.349,208.912,366.333,208.561,366.305z M210.365,366.371c-0.24-3.688-0.792-7.335-1.4-10.976
			c-0.026-0.252-0.06-0.505-0.086-0.758c0.294,0.029,0.586,0.052,0.879,0.07c0.612,3.874,1.225,7.748,1.836,11.621
			C211.186,366.356,210.775,366.37,210.365,366.371z M212.313,366.268c-0.587-3.827-1.13-7.658-1.406-11.521
			c0.373,0.002,0.743-0.01,1.111-0.033c0.273,3.828,0.905,7.587,1.896,11.304C213.388,366.13,212.853,366.209,212.313,366.268z
			 M216.332,365.249c-0.123,0.054-0.251,0.091-0.375,0.14c-0.944-3.616-1.551-7.271-1.817-10.994
			c0.211-0.054,0.421-0.108,0.623-0.176c0.754,3.563,1.508,7.127,2.262,10.69C216.804,365.026,216.577,365.142,216.332,365.249z
			 M217.936,364.348c-0.553-2.606-1.15-5.202-1.804-7.785c-0.163-0.909-0.29-1.825-0.373-2.748c0.495-0.234,0.962-0.508,1.401-0.819
			c-0.034,0.139-0.039,0.294-0.004,0.467c0.657,3.266,1.313,6.53,1.971,9.796C218.791,363.649,218.399,364.015,217.936,364.348z
			 M218.057,352.281c0.025-0.021,0.05-0.042,0.074-0.063c0.002,0.02,0.006,0.039,0.008,0.059
			C218.111,352.277,218.084,352.278,218.057,352.281z M220.666,360.043c-0.463-2.302-0.926-4.604-1.39-6.905
			c-0.042-0.212-0.134-0.378-0.251-0.511c-0.09-0.364-0.169-0.751-0.175-1.108c0.227-0.24,0.448-0.488,0.659-0.747
			c0.119,0.432,0.241,0.862,0.357,1.295c0.292,1.437,0.655,2.856,1.107,4.261c0.02,0.061,0.056,0.103,0.098,0.136
			C221.021,357.727,220.923,358.931,220.666,360.043z M221.14,354.121c-0.188-0.732-0.378-1.464-0.574-2.193
			c-0.139-0.686-0.259-1.376-0.36-2.071c0.388-0.542,0.75-1.106,1.092-1.685C221.244,350.154,221.191,352.138,221.14,354.121z
			 M221.445,342.506c-0.01,0.366-0.02,0.733-0.029,1.101c-0.135,0.099-0.254,0.231-0.342,0.412
			c-0.906,1.861-1.838,3.521-2.939,4.873c-2.635,2.183-5.961,3.437-9.412,3.506c-2.395-0.24-4.771-0.68-7.084-1.345
			c-1.425-0.409-2.88-1.195-4.35-1.569c-0.021-0.027-0.042-0.056-0.076-0.079c-0.539-0.381-1.016-0.809-1.439-1.283
			c-0.14-0.252-0.262-0.517-0.369-0.789c0.008-0.877,0.018-1.754,0.049-2.63c0.121-3.487-0.294-9.229,2.268-11.926
			c0.297-0.313,0.271-1.006-0.031-1.311c-1.153-1.162-2.104-2.386-2.885-3.712c0.945,0.066,1.887,0.09,2.826,0.066
			c4.119,0.253,8.227-0.239,12.221-1.463c0.008-0.002,0.017-0.003,0.025-0.005c-0.001-0.001-0.001-0.001-0.001-0.001
			c0.03-0.01,0.063-0.017,0.093-0.026c0.111-0.034,0.169-0.116,0.192-0.211c1.858-0.53,3.679-1.185,5.456-1.961
			c0.924-0.289,1.848-0.578,2.771-0.868C222.117,328.769,221.615,336.053,221.445,342.506z M221.989,307.472
			c-0.783,3.29-1.842,6.515-3.23,9.645c-1.924,3.19-4.799,5.676-9.155,6.787c-4.104,1.046-8.494,0.705-12.583-0.229
			c-2.391-0.547-4.816-1.314-7.054-2.333c-3.518-1.601-3.797-5.127-4.504-8.534c-0.098-0.47-0.197-0.941-0.295-1.413
			c3.548,1.252,7.243,1.628,10.992,1.1c1.367-0.193,1.044-2.313-0.324-2.121c-3.68,0.52-7.238,0.096-10.694-1.266
			c-0.163-0.064-0.317-0.088-0.462-0.08c-0.377-1.858-0.736-3.728-1.046-5.6c0.062,0.037,0.126,0.072,0.199,0.101
			c10.782,4.167,22.676,4.908,33.837,1.777c1.438-0.404,3.371-0.755,4.812-1.607C222.356,304.953,222.197,306.219,221.989,307.472z
			 M222.975,294.217c-0.133,3.063,0.24,6.495-3.02,8.132c-2.157,1.085-4.959,1.494-7.328,1.929c-9.421,1.731-19.09,0.7-28.004-2.745
			c-0.533-0.206-0.979,0.017-1.229,0.382c-0.18-1.213-0.334-2.425-0.451-3.636c-0.286-2.945,1.386-2.907,2.729-4.896
			c3.065,0.372,6.142,0.63,9.229,0.714c2.591,0.07,5.157,0.083,7.427-1.325c0.267-0.165,0.102-0.608-0.184-0.633
			c-0.889-0.076-1.779-0.155-2.669-0.244c-0.187-0.12-0.42-0.185-0.699-0.15c-0.138,0.016-0.273,0.02-0.41,0.034
			c-3.937-0.437-7.831-1.143-11.433-2.833c-0.329-0.506-0.617-1.036-0.863-1.59c-0.029-0.402-0.023-0.81,0.001-1.22
			c12.454,1.051,24.884-0.718,36.545-5.194C223.024,285.354,223.169,289.782,222.975,294.217z M222.381,278.73
			c0.007-0.013,0.016-0.024,0.022-0.036c0,0.009,0.001,0.018,0.001,0.026C222.396,278.724,222.388,278.727,222.381,278.73z
			 M224.068,270.265c0.002,0.001,0.003,0.001,0.005,0.002c0,0.009,0,0.017,0,0.025C224.072,270.283,224.07,270.273,224.068,270.265z
			 M227.32,254.491c-0.826,8.06-5.903,15.126-13.234,18.55c-8.005,3.738-16.855,2.071-24.889-0.674
			c0.546-0.532,1.074-1.092,1.578-1.695c0.133,0.096,0.295,0.167,0.496,0.191c7.797,0.971,16.41,1.894,23.479-2.328
			c4.998-2.985,8.231-8.208,9.569-13.786c3.297-13.754-5.476-26.08-16.398-33.488c-0.016-0.032-0.029-0.066-0.044-0.1
			c0.043-0.081,0.055-0.182,0-0.299c-0.1-0.215-0.179-0.431-0.252-0.648c-0.006-0.238,0.05-0.468,0.184-0.68
			c0.227-0.198,0.467-0.381,0.725-0.547c0.019,0.01,0.031,0.022,0.053,0.03c0.527,0.172,1.043,0.366,1.556,0.572
			c3.638,3.588,7.451,7.026,10.329,11.24C224.798,237.164,228.108,246.807,227.32,254.491z M251.023,261.2
			c-4.777-5.735-11.676-9.258-15.859-15.542c-0.336-0.61-0.652-1.229-0.95-1.856c-0.302-0.765-0.498-1.563-0.463-2.406
			c0.003-0.076,0.015-0.15,0.021-0.227c3.476-6.018,5.902-12.511,7.234-19.389c0.008-0.016,0.019-0.026,0.024-0.045
			c0.01-0.029,0.013-0.06,0.022-0.09l0,0c0-0.001,0-0.001,0-0.003c0.38-1.279-0.071-2.639-1.19-3.396
			c-0.233-0.159-0.514-0.02-0.567,0.246c-0.198,0.999-0.325,2.005-0.416,3.016c-1.31,6.763-3.73,13.131-7.204,19.02
			c-0.372-3.396-0.744-6.793-1.116-10.189c-0.022-0.198-0.088-0.356-0.18-0.486c-0.084-1.123-0.365-2.185-0.89-3.219
			c-0.09-0.178-0.284-0.254-0.472-0.181c-0.68,0.269-0.708,0.94-0.69,1.592c0.02,0.691,0.092,1.379,0.192,2.063
			c-0.07,0.16-0.105,0.344-0.082,0.556c0.467,4.264,0.935,8.527,1.401,12.792c-0.108,0.162-0.206,0.328-0.316,0.49
			c-0.027,0.04-0.044,0.08-0.065,0.12c-0.279,0.101-0.514,0.282-0.682,0.525c-0.063,0.01-0.125,0.021-0.19,0.025
			c-0.013,0.001-0.02,0.007-0.032,0.009c-0.896-3.77-2.324-7.439-3.934-10.805c-3.439-7.197-9.713-12.149-15.078-17.858
			c0.278-0.489,0.492-0.994,0.642-1.507c1.118-3.092,0.058-5.941-2.138-7.809c-0.028-0.037-0.049-0.078-0.078-0.115
			c-1.327-1.666-3.389-2.727-5.53-2.213c-0.137,0.033-0.268,0.082-0.401,0.123c0.991-0.753,2.043-1.441,3.174-2.061
			c0.932-0.511,1.926-0.994,2.859-1.557c0.063,0.017,0.13,0.032,0.203,0.039c0.529,0.046,1.067,0.045,1.605,0.002
			c1.822,0.788,4.697,0.331,6.217-0.195c2.625-0.909,4.399-3.206,4.981-5.883c0.012-0.056,0.021-0.112,0.03-0.168
			c0.59-1.77,0.584-3.711-0.203-5.492c-1.365-3.086-4.541-4.808-7.868-4.167c-1.979,0.381-3.587,1.455-4.821,2.892
			c-0.979,1.109-1.717,2.45-2.199,3.856c-6.927,2.708-12.273,8.108-16.225,14.346c-2.371,3.743-4.295,7.745-6.139,11.768
			c-1.196,2.61-2.417,6.56-4.342,9.565c-0.193,0.413-0.41,0.814-0.655,1.215c-0.2,0.324-0.666,0.074-0.644-0.254
			c0.172-2.538,0.303-5.066,0.048-7.585c-0.03-0.109-0.056-0.218-0.089-0.327c-0.719-2.349-1.272-4.422-1.595-6.607
			c0.013-0.151,0.029-0.297,0.05-0.438c0.118-0.512,0.331-0.98,0.634-1.4c0.111-0.077,0.229-0.147,0.35-0.213
			c2.178,0.046,4.294-0.656,6.051-2.124c0.643-0.537,0.397-1.36-0.13-1.729c-0.043-0.208-0.233-0.377-0.466-0.242
			c-0.027,0.016-0.065,0.037-0.097,0.054c-0.216-0.002-0.442,0.069-0.658,0.249c-0.121,0.102-0.25,0.187-0.375,0.279
			c-1.024,0.482-2.447,1.043-3.649,1.188c-1.304-0.727-1.835-1.946-1.963-3.319c0.028-0.949,0.077-1.897,0.154-2.843
			c0.136-0.842,0.321-1.655,0.477-2.366c0.515-2.347,1.252-4.694,2.398-6.818c0.366-0.56,0.731-1.121,1.098-1.681
			c0.09-0.134,0.184-0.265,0.273-0.397c0.022-0.027,0.046-0.052,0.068-0.079c0.688-0.613,1.339-1.263,1.95-1.95
			c0.564-0.487,1.159-0.96,1.785-1.455c0.231-0.183,0.443-0.389,0.613-0.608c0.511-0.475,0.929-1.034,1.184-1.769
			c0.073-0.21-0.051-0.467-0.29-0.487c-0.216-0.018-0.422-0.014-0.623-0.001c-0.063-0.04-0.139-0.063-0.231-0.049
			c-0.086,0.012-0.164,0.032-0.246,0.048c-0.043,0-0.083,0.008-0.123,0.024c-0.025,0.005-0.053,0.009-0.078,0.015
			c-0.074-0.024-0.157-0.022-0.24,0.022c-0.058,0.032-0.109,0.067-0.166,0.1c-0.629,0.224-1.142,0.595-1.573,1.126
			c-0.658,0.539-1.325,1.064-2.019,1.559c-0.758,0.541-2.099,1.802-3.014,1.931c-0.025,0.004-0.039,0.007-0.061,0.011
			c-0.07-2.054-0.464-4.035-1.207-5.992c-0.079-0.207-0.204-0.34-0.344-0.443c-0.107-0.34-0.258-0.626-0.47-0.788
			c-0.12-0.182-0.251-0.357-0.401-0.521c-0.145-0.16-0.436-0.192-0.565,0.013c-0.004,0.006-0.006,0.012-0.01,0.018
			c-0.146,0.013-0.274,0.105-0.28,0.299c-0.08,2.503-0.024,5.078-0.483,7.552c-0.96,2.184-2.681,3.911-4.901,4.921
			c-1.044-1.277-2.394-2.292-3.943-2.934c-1.342-0.717-2.827-0.949-4.336-0.806c-0.416-0.035-0.846-0.044-1.298,0.001
			c-0.213,0.021-0.39,0.303-0.272,0.5c0.585,0.988,1.703,1.144,2.741,1.455c0.147,0.166,0.354,0.291,0.63,0.335
			c0.146,0.023,0.289,0.056,0.432,0.087c0.338,0.16,0.667,0.333,0.983,0.527c1.884,1.396,3.314,3.344,4.083,5.555
			c0.104,0.479,0.197,0.961,0.275,1.445c0.003,0.057,0.014,0.112,0.016,0.169c0.061,1.327-0.016,3.932-1.402,4.674
			c-0.632,0.338-1.408,0.254-2.121,0.043c-1.127-0.932-2.379-1.699-3.726-2.29c-1.326-0.677-3.833-1.679-4.987-0.464
			c-0.088,0.092-0.08,0.249-0.038,0.358c0.272,0.703,0.694,0.781,1.357,1.092c1.035,0.486,2.058,0.937,3.047,1.505
			c1.099,0.813,2.174,1.657,3.223,2.539c0.04,0.033,0.082,0.054,0.124,0.065c0.592,0.628,1.117,1.316,1.563,2.073
			c-3.549-1.018-7.238-0.059-10.636,1.5c-2.401,0.833-4.635,2.123-6.581,3.792c-3.031,2.161-5.646,4.933-6.194,8.765
			c-1.27-1.92-2.334-3.979-3.138-6.176c-0.942-2.58-1.574-5.283-1.775-8.027c-0.264-3.593,0.658-5.647,2.441-8.558
			c1.357-1.172,2.817-1.626,4.31-1.595c0.043,0.026,0.093,0.044,0.155,0.051c1.002,0.096,1.981,0.291,2.924,0.62
			c0.49,0.192,0.979,0.417,1.464,0.672c0.189,0.12,0.383,0.24,0.583,0.319c0.092,0.053,0.185,0.103,0.276,0.157
			c0.128,0.076,0.256,0.061,0.361,0.005c0.207-0.039,0.362-0.263,0.257-0.498l0,0c-0.012-0.049-0.023-0.098-0.035-0.146
			c-0.004-0.019-0.016-0.036-0.022-0.054c-0.009-0.083-0.042-0.167-0.117-0.236c-0.283-0.259-0.566-0.518-0.85-0.776
			c-0.043-0.039-0.085-0.08-0.13-0.118c-0.002-0.002-0.006-0.005-0.008-0.007c-0.006-0.006-0.007-0.014-0.014-0.02
			c-0.857-0.854-1.8-1.544-2.929-2.001c-1.767-0.715-3.417-1.067-4.001-2.799c-0.045-0.601-0.066-1.201-0.063-1.8
			c0.171-2.882,1.108-5.704,2.162-8.44c0.736-1.304,1.589-2.542,2.576-3.67c0.476-0.543,1.029-1.05,1.584-1.563
			c0.056-0.011,0.112-0.035,0.165-0.09c2.939-3.052,6.922,1.002,9.255,2.866c0.226,0.181,0.647-0.039,0.565-0.342
			c-0.016-0.056-0.038-0.105-0.055-0.16c0.09-0.095,0.129-0.229,0.05-0.366c-0.016-0.027-0.033-0.052-0.049-0.079l-0.001-0.001
			c-0.242-0.415-0.498-0.817-0.764-1.21c-0.137-0.216-0.283-0.426-0.44-0.628c-0.38-0.521-0.783-1.02-1.206-1.5
			c-0.006-0.011-0.008-0.022-0.014-0.034c-0.472-0.902-1.218-1.597-2.087-2.025c-0.228-0.193-0.46-0.38-0.696-0.563
			c-0.416-0.491-0.809-0.999-1.166-1.536c-0.026-0.055-0.057-0.107-0.081-0.164c-0.908-2.093-0.195-4.358,0.542-6.378
			c0.045-0.12,0.021-0.224-0.033-0.307c1.021-1.907,2.623-3.538,4.613-4.801c0.494-0.314,0.848-0.691,1.138-1.102
			c0.402-0.255,0.758-0.566,1.025-1.033c0.327-0.569,0.379-1.387,0.56-2.106c0.027-0.048,0.05-0.097,0.079-0.146
			c1.39-2.299,3.7-3.908,6.386-3.669c8.53,9.91,21.31,16.535,34.536,15.833c10.417-0.553,21.694-6.558,25.964-15.884
			c1.016-1.835,1.703-3.848,2.01-5.953c0.66-2.461,0.817-5.05,0.434-7.649c-0.019-0.129-0.084-0.208-0.166-0.252
			c-0.108-3.188-0.92-6.333-1.729-9.416c-0.275-1.05-0.564-2.097-0.866-3.139c0.929-0.48,1.88-0.872,2.856-1.172
			c3.189-0.407,6.407-0.418,9.588-0.018c-0.013,0.202-0.059,0.419-0.127,0.638c-1.253,1.412-2.299,2.987-3.125,4.716
			c-0.022,0.048-0.035,0.095-0.051,0.143c-0.563,0.954-1.336,2.378-1.118,3.258c0.39,1.577,1.84-0.574,2.76-2.151
			c0.162-0.102,0.305-0.25,0.405-0.46c1.034-2.167,2.488-4.059,4.293-5.637c1.386,0.292,2.761,0.664,4.118,1.119
			c3.402,1.141,6.635,2.745,9.567,4.817c2.319,1.639,4.425,4.146,7.33,4.713c1.066,0.208,2.074,0.168,3.078,0.23
			c-1.699,1.147-3.232,2.927-4.283,4.523c-0.711,1.079-1.232,2.231-1.545,3.439c-0.013,0.049-0.025,0.1-0.036,0.149
			c-0.237,0.975-0.341,1.984-0.276,3.025c0.02,0.325,0.449,0.374,0.628,0.17c0.093,0.017,0.19,0.007,0.276-0.063
			c1.535-1.239,1.979-3.705,3.072-5.31c1.215-1.785,2.949-3.011,4.346-4.583c0.282-0.173,0.568-0.34,0.865-0.495
			c1.804,1.042,2.648,2.61,3.936,4.263c1.974,2.534,4.824,3.77,7.397,5.577c5.864,4.119,10.177,9.923,12.714,16.563
			c-0.207,2.187-2.395,3.444-3.923,4.775c-0.077,0.068-0.149,0.144-0.227,0.212c-0.764,0.621-1.463,1.313-2.099,2.07
			c-0.289,0.313-0.589,0.617-0.863,0.943c-2.049,2.431-3.594,5.208-4.438,8.278c-0.003,0.012,0,0.022-0.002,0.033
			c-6.002-1.483-11.354-4.534-15.696-8.908c-0.949-4.508-0.143-9.053,1.3-13.396c0.333-1.003,0.697-1.996,1.074-2.983
			c0.119-0.314,0.325-0.706,0.521-1.11c0.004-0.006,0.008-0.012,0.012-0.018c0.097-0.136,0.154-0.273,0.184-0.409
			c0.173-0.4,0.305-0.793,0.296-1.122c-0.014-0.563-0.288-0.982-0.94-0.874c-1.119,0.186-2.225,2.332-2.721,3.194
			c-0.618,1.074-1.104,2.215-1.516,3.382c-1.543,3.878-2.091,8.063-1.588,12.32c-2.178,0.339-4.414,0.531-6.523-0.158
			c-1.539-0.502-2.714-1.515-3.915-2.506c-0.913-1.572-1.476-3.222-1.738-4.896c-0.306-2.659-0.013-5.311,0.841-7.817
			c0.521-1.423,1.227-2.801,2.095-4.094c0.432-0.643,2.185-2.859,1.178-3.619c-0.677-0.51-1.562,0.389-2.177,1.201
			c-0.074,0.06-0.146,0.128-0.21,0.217c-3.621,4.974-4.768,10.951-3.386,16.835c-4.244-1.677-10.313-0.972-12.346-5.821
			c-0.021-0.05-0.049-0.091-0.073-0.134c0.569-3.545,1.138-7.089,1.707-10.634c0.019-0.116,0.014-0.222-0.003-0.323
			c0.075-0.569,0.059-1.112-0.076-1.76c-0.056-0.268-0.355-0.392-0.579-0.224c-0.474,0.357-0.806,0.815-1.061,1.322
			c-0.147,0.106-0.27,0.259-0.344,0.465c-0.615,1.697-1.23,3.394-1.845,5.091c-0.28,0.771-0.557,1.543-0.839,2.314
			c-0.085,0.23-1.002,2.827-1.678,2.436c-0.056-0.057-0.114-0.105-0.169-0.163c-0.957-1.011-2.429,0.2-1.668,1.351
			c0.201,0.305,0.451,0.521,0.718,0.693c1.114,1.034,2.336,1.862,3.75,2.505c0.271,0.123,0.517,0.123,0.728,0.049
			c3.087,5.842,4.637,12.365,6.398,18.712c0.44,1.587,1.021,3.215,1.195,4.859c0.166,1.567-0.236,3.126-0.066,4.686
			c0.091,0.84,0.382,1.571,0.762,2.255c-3.268,5.009-7.276,9.356-12.041,13.004c-0.117,0.09-0.201,0.191-0.266,0.296
			c-1.036,0.708-2.266,1.783-1.525,2.593c0.845,0.924,2.385-0.343,3.268-1.322c4.132-3.183,7.73-6.895,10.771-11.088
			c0.191,1.401,0.317,2.808,0.366,4.222c-0.24,3.374-0.67,6.722-1.868,9.908c-0.315,0.569-0.524,1.155-0.655,1.826
			c-0.057,0.288,0.267,0.455,0.502,0.369c0.566-0.208,1.063-0.471,1.512-0.801c0.043-0.022,0.083-0.05,0.125-0.074
			c1.978-0.286,2.007-3.188,2.215-4.821c0.389-3.058,0.402-6.122,0.116-9.171c0.228,0.762,0.454,1.525,0.681,2.288
			c0.149,0.502,0.301,1.652,1.106,1.38c0.646-0.218,0.609-1.264,0.628-1.792c0.015-0.438-0.014-0.868-0.061-1.294
			c6.187,5.205,12.373,10.41,18.559,15.615c3.316,2.791,6.663,5.467,8.74,9.356c1.766,3.308,3.296,6.555,5.572,9.564
			c0.783,1.037,1.617,2.235,2.522,3.384c-2.804,4.794-6.144,9.193-9.946,13.131c-0.081-0.01-0.168,0.016-0.247,0.096
			c-5.475,5.474-11.934,9.778-19.077,12.743C252.753,263.732,252.012,262.387,251.023,261.2z M142.526,198.788
			c0.011,0.006,0.021,0.012,0.03,0.018c-0.007,0-0.015-0.001-0.022-0.002C142.532,198.798,142.529,198.793,142.526,198.788z
			 M268.105,278.178c-0.379-0.785-0.74-1.655-1.18-2.415c3.95-2.18,7.413-4.988,10.379-8.424c0.127-0.148,0.197-0.301,0.229-0.451
			c0.444-0.686,0.675-1.464,0.692-2.371c0.002-0.038-0.01-0.068-0.018-0.102c0.018-0.088,0.042-0.172,0.057-0.263
			c0.062-0.378-0.427-0.506-0.644-0.254c-0.565,0.659-1.151,1.296-1.745,1.925c-0.106,0.061-0.209,0.138-0.303,0.245
			c-0.279,0.324-0.568,0.636-0.857,0.947c-1.886,1.875-3.904,3.602-6.047,5.18c-1.039,0.701-2.119,1.349-3.242,1.943
			c-0.479-0.244-1.006-0.326-1.578-0.339c-2.68-0.063-4.533,0.423-6.574-1.903c-0.803-0.915-1.441-1.944-2.016-3.022
			c0.024-0.028,0.047-0.059,0.063-0.098c0.252-0.623,0.635-1.168,1.111-1.624c0.816-0.431,1.622-0.878,2.419-1.339
			c0.485-0.255,0.959-0.53,1.418-0.831c9.809-5.974,17.996-14.209,23.897-24.139c0.728,0.76,1.498,1.439,2.337,1.937
			c0.682,0.404,1.433,0.59,2.182,0.776c-0.05,0.049-0.09,0.111-0.102,0.198c-0.541,4.085-1.145,8.217-3.293,11.813
			c-0.051,0.085-0.063,0.167-0.055,0.243c0,0.003,0,0.006,0,0.01c0.003,0.02,0.008,0.039,0.014,0.058
			c0.023,0.121,0.1,0.237,0.213,0.268c0.971,0.262,1.767-0.454,2.385-1.23c0.017-0.007,0.032-0.021,0.048-0.032
			c0.251-0.084,0.479-0.26,0.626-0.553c1.541-3.069,2.383-6.368,2.502-9.799c0.001-0.027-0.004-0.05-0.004-0.075
			c1.65,1.068,2.588,2.792,3.429,4.546c1.242,2.594,2.319,5.261,3.244,7.98C293.871,270.239,280.968,276.583,268.105,278.178z
			 M276.889,265.793c0.019-0.02,0.035-0.04,0.053-0.059c-0.01,0.022-0.018,0.046-0.027,0.069
			C276.906,265.8,276.897,265.797,276.889,265.793z M273.104,284.479c-1.318-1.368-2.605-2.779-3.742-4.305
			c12.338-1.75,24.638-7.883,29.416-19.75c1.477,5.105,2.443,10.363,2.966,15.645c0.016,0.163,0.062,0.299,0.126,0.415
			c0.01,0.232,0.018,0.465,0.023,0.698c-1.569,8.022-7.355,15.343-16.363,14.899C280.161,291.816,276.613,288.121,273.104,284.479z
			 M294.719,309.905c-0.869-0.611-1.579-1.397-2.193-2.268c0.816,0.412,1.655,0.753,2.502,1.052
			c0.135,0.587,0.292,1.166,0.477,1.736C295.234,310.256,294.972,310.083,294.719,309.905z M296.452,310.993
			c-0.247-0.665-0.456-1.341-0.63-2.028c0.312,0.097,0.626,0.176,0.939,0.258c0.189,0.764,0.398,1.521,0.627,2.272
			C297.069,311.332,296.757,311.165,296.452,310.993z M298.266,311.922c-0.266-0.827-0.504-1.662-0.719-2.503
			c0.318,0.07,0.639,0.128,0.959,0.184c0.354,1.084,0.838,2.102,1.463,3.058C299.389,312.426,298.818,312.181,298.266,311.922z
			 M302.938,313.727c-0.253-0.495-0.49-0.997-0.712-1.505c-0.007-0.015-0.013-0.029-0.02-0.044c-0.323-0.744-0.615-1.501-0.87-2.273
			c0.508,0.021,1.016,0.027,1.523,0.014c0.303,0.901,0.619,1.798,0.953,2.688c0.175,0.526,0.367,1.048,0.596,1.562
			C303.918,314.027,303.426,313.882,302.938,313.727z M305.318,314.415c-0.029-0.055-0.052-0.11-0.079-0.165
			c-0.493-1.438-0.883-2.896-1.176-4.384c0.491-0.039,0.981-0.098,1.47-0.169c0.221,1.828,0.783,3.556,1.64,5.171
			C306.561,314.731,305.939,314.578,305.318,314.415z M293.9,305.951c-0.309-0.153-0.616-0.317-0.924-0.489
			c-0.016-0.015-0.024-0.031-0.042-0.044c-1.047-0.753-2.036-1.571-2.989-2.436c-1.387-2.652-2.64-5.365-3.811-8.119
			c-0.004-0.01-0.01-0.016-0.014-0.025c-0.047-0.209-0.094-0.418-0.149-0.625c-0.003-0.011-0.007-0.022-0.011-0.033
			c1.607,0.059,3.301-0.149,5.099-0.688c6.271-1.879,10.353-6.988,12.22-12.917c2.98,3.873,18.561,6.385,22.613,6.764
			c-0.561,0.837-1.024,1.837-1.399,2.854c-2.858,7.757-9.299,14.555-16.872,16.876C303.029,307.89,298.321,307.503,293.9,305.951z
			 M311.377,315.621c-0.461-0.061-0.939-0.135-1.425-0.215c-0.033-0.091-0.075-0.182-0.136-0.271
			c-1.226-1.78-1.928-3.742-2.172-5.85c0.51-0.123,1.016-0.26,1.518-0.418c0.554,2.397,1.429,4.654,2.649,6.803
			C311.666,315.653,311.521,315.641,311.377,315.621z M312.778,315.765c-1.054-2.355-2.051-4.718-2.639-7.235
			c0.646-0.234,1.285-0.489,1.913-0.78c0.676,2.807,1.634,5.5,2.899,8.095C314.227,315.849,313.501,315.821,312.778,315.765z
			 M317.274,315.71c-0.004-0.01-0.005-0.019-0.011-0.027c-1.453-2.83-2.541-5.773-3.24-8.879c-0.006-0.027-0.018-0.05-0.025-0.076
			c0.438-0.254,0.869-0.518,1.291-0.8c0.406,1.657,0.978,3.248,1.658,4.797c0.643,1.602,1.376,3.169,2.204,4.698
			C318.532,315.548,317.906,315.642,317.274,315.71z M320.017,315.232c-1.573-3.016-2.877-6.14-3.896-9.389
			c-0.025-0.083-0.073-0.132-0.127-0.166c-0.02-0.07-0.039-0.142-0.058-0.212c0.222-0.159,0.448-0.309,0.666-0.476
			c0.302-0.232,0.589-0.479,0.88-0.725c1.258,3.55,2.693,7.021,4.319,10.422C321.217,314.897,320.622,315.082,320.017,315.232z
			 M323.771,313.833c-1.735-3.626-3.256-7.333-4.573-11.131c0.328-0.329,0.646-0.67,0.958-1.015
			c1.009,4.046,2.792,7.799,5.295,11.145C324.908,313.202,324.35,313.537,323.771,313.833z M327.501,311.162
			c-0.452,0.442-0.929,0.843-1.421,1.217c-2.19-3.617-3.781-7.526-5.239-11.488c0.396-0.472,0.778-0.955,1.146-1.451
			c1.288,4.159,3.138,8.036,5.57,11.664C327.537,311.122,327.52,311.143,327.501,311.162z M329.021,309.446
			c-2.4-3.653-4.2-7.597-5.357-11.828c-0.04-0.146-0.104-0.27-0.183-0.377c0.16-0.26,0.313-0.524,0.467-0.788
			c1.428,4.088,3.563,7.835,6.356,11.154C329.908,308.243,329.482,308.857,329.021,309.446z M330.736,306.882
			c-2.391-3.604-4.49-7.373-6.297-11.303c0.195-0.36,0.391-0.721,0.572-1.088c0.061-0.121,0.12-0.256,0.179-0.398
			c2.057,3.808,4.16,7.589,6.319,11.339l0,0C331.267,305.924,331.008,306.407,330.736,306.882z M331.905,304.612
			c-1.806-3.729-3.914-7.288-6.067-10.823c-0.104-0.193-0.213-0.384-0.315-0.577c0.227-0.648,0.464-1.382,0.739-2.097
			c2.133,3.916,4.268,7.832,6.401,11.749C332.424,303.453,332.172,304.036,331.905,304.612z M333.66,300.224
			c-1.957-3.592-3.913-7.184-5.871-10.775c-0.118-0.218-0.281-0.366-0.462-0.459c0.204-0.288,0.429-0.537,0.675-0.736
			c0.91,1.144,1.752,2.331,2.534,3.556c1.229,2.262,2.46,4.522,3.689,6.783C334.041,299.134,333.854,299.678,333.66,300.224z
			 M334.727,297.34c-1.637-3.311-3.479-6.506-5.531-9.579c0.393-0.028,0.827,0.052,1.313,0.274c2.983,1.364,4.169,6.097,4.239,9.275
			C334.74,297.319,334.734,297.331,334.727,297.34z"/>
		<path fill="#020203" d="M222.56,177.192c1.012-0.166,1.747-1.219,1.527-2.221c-0.095-0.435-0.347-0.803-0.677-1.076
			c0.153-0.21,0.104-0.554-0.217-0.55c-0.229,0.003-0.458,0.031-0.684,0.076c-0.014-0.003-0.025-0.009-0.039-0.012
			c-0.959-0.216-1.931,0.254-2.226,1.22c-0.279,0.916,0.128,1.993,1.044,2.357c0.139,0.055,0.285,0.086,0.434,0.107
			C221.984,177.195,222.268,177.24,222.56,177.192z M221.594,176.166c-0.041-0.038-0.078-0.081-0.113-0.125
			c-0.118-0.17-0.192-0.37-0.199-0.57c0-0.012-0.001-0.023,0-0.036c0-0.06,0.007-0.12,0.02-0.178
			c0.002-0.012,0.006-0.022,0.008-0.034c0.018-0.066,0.043-0.13,0.078-0.191c0.05-0.085,0.117-0.156,0.19-0.22
			c0.318-0.076,0.653-0.1,0.941,0.03c0.722,0.325,0.354,1.287-0.304,1.427C221.997,176.317,221.782,176.271,221.594,176.166z"/>
		<path fill="#020203" d="M229.798,186.108c1.038-0.114,1.838-0.702,2.37-1.526c0.575-0.548,0.982-1.237,1.068-2.174
			c0.227-2.448-0.758-5.313-1.421-7.64c-0.547-1.921-1.03-4.646-2.539-6.085c-0.85-0.81-1.842-0.879-2.831-0.641
			c-2.99,0.352-5.756,1.373-8.279,3.051c-0.114,0.077-0.146,0.191-0.129,0.303c-0.82,0.745-1.285,1.728-1.06,3.065
			c0.435,2.572,1.595,5.243,2.508,7.677c0.676,1.802,1.297,5.022,2.986,6.179C224.143,189.46,228.42,187.869,229.798,186.108z
			 M226.588,169.424c1.352,0.08,1.347,1.157,1.578,2.071c0.346,1.358,0.69,2.716,1.035,4.074c0.438,1.722,2.54,6.853,1.105,8.699
			c-0.078-1.316-0.74-2.809-1.04-3.813c-1.016-3.404-2.07-6.795-3.153-10.178c-0.021-0.067-0.049-0.125-0.078-0.181
			c0.009-0.18-0.021-0.36-0.089-0.524C226.184,169.479,226.41,169.414,226.588,169.424z M227.278,185.266
			c-0.509,0.586-2.804,1.278-3.438,1.021c-1.509-0.612-2.727-5.878-3.273-7.47c-0.344-1-1.708-3.641-1.468-4.681
			c0.43-1.86,3.211-2.501,5.097-2.853c0.934,2.917,1.848,5.84,2.73,8.773C227.35,181.465,228.447,183.921,227.278,185.266z"/>
		<path fill="#020203" d="M225.555,180.181c-0.26-0.399-0.624-0.638-1.022-0.715c-0.05-0.2-0.236-0.357-0.464-0.228
			c-0.175,0.098-0.336,0.217-0.489,0.345c-0.224,0.102-0.437,0.25-0.621,0.458c-0.016,0.017-0.025,0.038-0.04,0.055
			c-0.47,0.364-0.811,0.911-0.878,1.495c-0.146,1.269,0.917,2.11,2.093,1.885c0.474,0.083,0.983,0,1.428-0.286
			C226.854,182.359,226.46,180.904,225.555,180.181z M224.313,182.329c-0.475,0.067-0.738-0.207-0.819-0.558
			c-0.03-0.38,0.213-0.765,0.65-0.896c0.137-0.041,0.266-0.043,0.388-0.027c0.005,0.003,0.011,0.003,0.017,0.006
			C225.238,181.182,225.068,182.222,224.313,182.329z"/>
		<path fill="#020203" d="M215.76,337.012c-0.214-0.236-0.494-0.406-0.866-0.468c-1.024-0.172-2.452,0.298-3.466,0.448
			c-0.843,0.126-1.687,0.251-2.529,0.377c-0.406,0.003-0.813,0.006-1.219,0.01c-1.287,0.013-2.666-0.073-3.676,0.858
			c-1.681,1.552-1.107,4.148-0.48,6.047c0.183,0.552,0.932,0.759,1.418,0.541c3.024-1.349,6.593,0.584,9.522-1.214
			c1.385-0.851,2.208-2.36,2.053-3.883C216.675,338.71,216.746,337.418,215.76,337.012z M205.191,342.466
			c-0.083-0.323-0.142-0.652-0.135-0.958c0.039-1.744,1.068-1.957,2.467-1.994c0,0.022,0.001,0.046,0.002,0.069
			c0,0.008-0.004,0.014-0.004,0.021c0.011,0.774,0.021,1.549,0.033,2.323c0.001,0.078,0.027,0.141,0.063,0.196
			c0,0.01,0.001,0.02,0.001,0.029C206.788,342.163,205.984,342.249,205.191,342.466z M208.471,342.165
			c-0.047-0.001-0.092-0.002-0.139-0.003c-0.033-0.887-0.065-1.772-0.099-2.658c0.642-0.008,1.284-0.011,1.925-0.016
			c0.008,0.062,0.014,0.123,0.021,0.184c0,0.009-0.004,0.015-0.004,0.023c0.004,0.07,0.008,0.141,0.012,0.212
			c0,0.009-0.005,0.015-0.005,0.023c0,0.032,0.003,0.063,0.003,0.096h-0.001c0.001,0.006,0.001,0.012,0.001,0.019
			c0.002,0.728,0.041,1.451,0.13,2.174C209.561,342.224,208.884,342.184,208.471,342.165z M211.01,342.201
			c0.006-0.029,0.014-0.057,0.013-0.089c0-0.001,0-0.002,0-0.003c0.003-0.02,0.013-0.035,0.013-0.057
			c0-0.031-0.003-0.063-0.004-0.096h0.002c-0.001-0.013-0.002-0.024-0.003-0.037c-0.001-0.816-0.059-1.628-0.155-2.438
			c0.703-0.004,1.405-0.011,2.107-0.017c0.285-0.002,0.52-0.101,0.704-0.25c0.151,0.014,0.304,0.021,0.456,0.027
			c0.004,0.005,0.004,0.01,0.007,0.015C215.361,341.547,213.111,342.104,211.01,342.201z"/>
		<path fill="#020203" d="M234.842,195.961c0.313-0.2,0.627-0.411,0.925-0.642c0.042-0.023,0.083-0.046,0.126-0.07
			c0.791-0.393,1.678-0.879,1.893-1.56c0.065-0.208,0.075-0.45,0.051-0.712c0.007-0.019,0.021-0.035,0.027-0.054
			c0.049-0.161,0.053-0.356,0.039-0.563c0.043-0.439,0.002-0.895-0.13-1.32c-0.156-0.502-0.484-1.238-0.875-1.824
			c-0.145-0.307-0.315-0.544-0.505-0.729c-0.012-0.027-0.021-0.06-0.034-0.086c-0.373-0.776-0.875-0.724-1.592-0.542
			c-0.199-0.046-0.421-0.054-0.685-0.002c-0.724,0.143-1.458,0.564-2.148,0.91c-0.3,0.114-0.599,0.229-0.895,0.353
			c-2.304,0.47-4.656,1.313-5.724,3.577c-1.049,2.223-0.278,4.836,2.133,5.69C230.052,199.31,232.935,197.666,234.842,195.961z
			 M235.149,189.241l0.414,0.146c0.451,0.687,0.788,1.726,1.009,2.299c0.072,0.187,0.133,0.351,0.188,0.507
			c-0.104,0.423-0.338,0.789-0.672,1.106c-0.045-1.37-0.897-2.766-1.89-3.888C234.515,189.31,234.842,189.223,235.149,189.241z
			 M228.238,196.392c-1.881-0.67-1.375-2.811-0.143-3.861c1.205-1.027,2.928-1.255,4.432-1.503c0.074-0.012,0.141-0.032,0.204-0.055
			c0.361,0.4,0.705,0.825,0.938,1.304c0.547,1.119,0.211,1.634-0.681,2.409C231.844,195.682,229.832,196.959,228.238,196.392z"/>
		<path fill="#020203" d="M314.231,288.362c-0.735-0.335-1.363-0.374-1.901-0.203c-0.357-0.073-0.747,0.018-1.041,0.375
			c-1.364,1.655-2.519,3.466-3.41,5.419c-0.721,1.579-0.975,3.094,0.853,3.995c1.46,0.721,3.035,0.216,4.102-0.937
			c1.273-1.376,1.518-3.324,2.604-4.801c0.013-0.012,0.031-0.015,0.042-0.029c0.052-0.063,0.084-0.131,0.128-0.196
			c0.029-0.036,0.053-0.076,0.084-0.111c0.122-0.14,0.181-0.299,0.2-0.462c0.282-0.852,0.019-1.743-0.695-2.342
			C314.968,288.794,314.65,288.553,314.231,288.362z M310.096,296.146c-0.957-0.176-0.353-1.408,0.162-2.287
			c0.537,0.275,1.06,0.577,1.566,0.905C311.432,295.545,310.875,296.289,310.096,296.146z M312.348,293.543
			c-0.064,0.158-0.14,0.353-0.228,0.564c-0.485-0.309-0.983-0.596-1.495-0.86c0.018-0.03,0.036-0.062,0.051-0.087
			c0.155-0.276,0.32-0.548,0.489-0.815c0.44,0.297,0.872,0.606,1.294,0.928C312.422,293.363,312.384,293.452,312.348,293.543z
			 M312.835,292.414c-0.028,0.061-0.058,0.119-0.085,0.181c-0.389-0.293-0.786-0.574-1.19-0.846
			c0.267-0.393,0.542-0.779,0.831-1.156c0.305,0.257,0.43,0.603,0.469,0.977C312.852,291.852,312.843,292.133,312.835,292.414z"/>
		<path fill="#020203" d="M279.285,237.923c-0.228-2.433-1.753-4.237-4.033-4.819c-0.623-1.683-1.87-3.164-3.009-4.513
			c-2.125-2.517-4.446-4.871-6.897-7.07c-0.989-0.889-2.289-2.518-3.719-3.063c0.071-1.811-2.182-2.846-3.432-3.748
			c-0.143-0.103-0.288-0.164-0.43-0.192c-0.293-0.092-0.625-0.078-0.943,0.123c-2.645,1.66-4.318,4.071-6.024,6.632
			c-2.129,3.193-4.305,6.366-6.377,9.598c-1.313,2.049-4.737,8.914-0.07,9.661c0.554,0.089,1.06-0.055,1.523-0.34
			c0.052,0.058,0.113,0.113,0.184,0.165c2.886,2.104,5.772,4.207,8.659,6.311l4.87,3.55c0.708,0.516,1.499,1.299,2.339,1.812
			c1.219,1.924,2.638,5.161,5.252,4.038c1.27-0.546,2.652-2.509,3.538-3.522c1.689-1.934,3.229-3.992,4.748-6.061
			C277.262,244.034,279.591,241.185,279.285,237.923z M245.674,237.109c-1.71,0.269-1.312-1.664-0.955-2.503
			c0.457-1.075,1.165-2.059,1.807-3.032c1.118-1.697,2.25-3.387,3.376-5.081c2.229-3.355,4.258-7.29,7.563-9.704
			c0.881,0.537,1.654,0.905,1.432,2.007c-0.204,1.002-1.349,2.144-1.917,2.917c-1.211,1.649-2.422,3.299-3.634,4.948
			c-1.211,1.65-2.423,3.3-3.634,4.949C249.17,232.349,246.576,236.969,245.674,237.109z M247.388,238.67
			c0.649-0.889,1.185-1.883,1.63-2.489c2.288-3.116,4.576-6.231,6.864-9.348c1.076-1.466,2.153-2.933,3.229-4.398
			c0.354-0.483,0.942-1.104,1.462-1.768c0.085,0.01,0.17,0.013,0.256,0.003c0.065-0.007,0.13-0.015,0.195-0.021
			c0.063-0.008,0.118-0.022,0.174-0.037c0.366,0.264,0.909,0.748,1.462,1.263c-4.768,5.834-9.535,11.668-14.303,17.502
			C248.034,239.14,247.711,238.905,247.388,238.67z M260.402,248.262c-0.589-0.456-1.161-0.952-1.71-1.353
			c-3.106-2.265-6.212-4.528-9.319-6.792c0.015-0.013,0.03-0.02,0.043-0.035l14.228-17.273c0.395,0.379,0.729,0.703,0.909,0.869
			c1.822,1.668,3.553,3.44,5.185,5.295c0.79,0.898,1.784,1.903,2.415,2.926c0.121,0.196,0.217,0.381,0.316,0.567
			c-1.674,2.63-3.358,5.253-5.104,7.836c-1.908,2.822-3.78,6.142-6.84,7.85C260.472,248.182,260.434,248.22,260.402,248.262z
			 M260.994,248.695c0,0-0.002-0.001-0.002-0.002c0.001-0.001,0.003-0.002,0.005-0.003
			C260.995,248.691,260.995,248.693,260.994,248.695z M261.611,249.084c2.479-2.189,4.557-4.896,6.601-7.482
			c1.857-2.351,3.539-4.818,4.897-7.486c0.283,1.29,0.015,2.516-0.719,4.13c-0.924,2.036-2.545,3.994-3.84,5.808
			c-1.076,1.509-2.338,3.951-3.842,5.031C263.652,249.843,262.613,249.642,261.611,249.084z M271.813,247.785
			c-1.17,1.525-2.372,3.032-3.68,4.442c-0.644,0.692-1.276,1.85-2.343,1.59c-0.204-0.049-0.7-0.751-1.196-1.517
			c0.681-0.385,1.188-1.143,1.845-1.946c2.269-2.779,4.386-5.683,6.334-8.694c1.179-1.823,2.745-3.855,2.87-6.109
			c1.272,0.873,1.584,2.801,1.275,4.164c-0.26,1.144-0.836,2.113-1.462,3.094C274.358,244.528,273.053,246.167,271.813,247.785z"/>
		<path fill="#020203" d="M209.765,334.619c1.534-0.066,3.689,0.263,5.054-0.47c2.263-1.215,0.981-4.908,0.408-6.783
			c-0.053-0.174-0.135-0.308-0.234-0.408c-0.408-0.905-1.096-1.431-2.161-1.022c-0.094,0.036-0.147,0.098-0.179,0.166
			c-1.834,0.63-3.684,1.204-5.564,1.678c-1.363,0.344-3.127,0.379-4.367,1.021c-1.992,1.03-1.367,3.775-0.813,5.49
			c0.019,0.057,0.044,0.109,0.073,0.157c0.001,0.416,0.013,0.833,0.04,1.254c0.015,0.221,0.307,0.38,0.5,0.272
			c1.421-0.788,2.927-1.071,4.467-1.233C207.913,334.7,208.839,334.66,209.765,334.619z M213.25,328.153
			c0.006,0.03,0.008,0.06,0.018,0.09c0.314,1.025,1.159,3.213,0.009,4.088c-0.509,0.388-2.618,0.124-3.328,0.146
			c-0.185-1.057-0.293-2.119-0.326-3.189C210.84,328.937,212.05,328.561,213.25,328.153z M208.287,329.674
			c0.167-0.045,0.332-0.099,0.499-0.145c0.038,0.878,0.115,1.748,0.271,2.617c0.019,0.106,0.074,0.18,0.145,0.227
			c0.01,0.045,0.016,0.09,0.025,0.135c-0.64,0.028-1.278,0.056-1.918,0.084c0.058-0.066,0.092-0.159,0.083-0.276
			c-0.055-0.768-0.174-1.522-0.357-2.271c-0.005-0.022-0.019-0.038-0.026-0.058C207.434,329.883,207.863,329.787,208.287,329.674z
			 M203.639,332.752c-0.159-0.684-0.078-1.37,0.246-2.061c0.591-0.116,1.181-0.24,1.769-0.372c0.161-0.036,0.319-0.08,0.479-0.118
			c0.067,0.728,0.186,1.442,0.357,2.152c0.033,0.137,0.121,0.223,0.225,0.264C205.689,332.662,204.664,332.707,203.639,332.752z"/>
		<path fill="#020203" d="M308.655,288.465c0.603-1.514-1.603-3.506-3.06-3.686c-0.201-0.025-0.484,0.004-0.728,0.094
			c-0.299-0.011-0.6,0.115-0.818,0.452c-1.441,2.208-3.921,3.848-4.486,6.554c-0.433,2.07,0.217,4.029,2.114,5.051
			c0.438,0.236,0.973-0.03,1.261-0.362c1.111-1.284,2.222-2.568,3.334-3.854c0.841-0.972,1.908-1.963,2.268-3.241
			C308.638,289.126,308.673,288.787,308.655,288.465z M301.891,294.509c-0.945-0.96-0.391-2.412,0.575-3.842
			c0.513,0.467,1.02,0.94,1.52,1.421C303.287,292.895,302.589,293.702,301.891,294.509z M304.449,291.552
			c-0.516-0.496-1.037-0.986-1.566-1.467c0.18-0.241,0.367-0.479,0.557-0.712c0.534,0.498,1.081,0.98,1.644,1.447
			C304.872,291.064,304.662,291.309,304.449,291.552z M305.547,290.28c-0.564-0.468-1.115-0.952-1.651-1.452
			c0.155-0.182,0.308-0.358,0.457-0.528c0.392-0.159,0.79-0.269,1.209-0.326c0.178,0.11,0.394,0.174,0.646,0.161
			C307.289,288.084,305.852,289.908,305.547,290.28z"/>
	</g>
	<path d="M172.133,56.312c-1.604,0.044-3.206,0.068-4.809,0.077c1.309-1.726,2.594-3.469,3.834-5.248
		c1.005-1.442-1.356-2.806-2.354-1.375c-0.777,1.114-1.568,2.216-2.372,3.308c0.148-2.975,0.296-5.95,0.446-8.925
		c0.087-1.753-2.64-1.749-2.727,0c-0.159,3.192-0.318,6.383-0.479,9.575c-1.142-1.447-2.271-2.904-3.442-4.329
		c-1.114-1.356-3.032,0.582-1.928,1.928c1.362,1.657,2.682,3.344,4.003,5.032c-2.714-0.048-5.428-0.139-8.141-0.289
		c-1.752-0.097-1.747,2.629,0,2.726c2.539,0.14,5.077,0.226,7.616,0.276c-1.019,1.253-2.052,2.495-3.11,3.718
		c-1.143,1.321,0.777,3.257,1.928,1.927c0.909-1.051,1.804-2.113,2.686-3.185c-0.168,3.36-0.336,6.721-0.504,10.082
		c-0.087,1.753,2.639,1.749,2.726,0c0.173-3.457,0.345-6.914,0.518-10.372c0.896,1.201,1.808,2.388,2.684,3.604
		c1.016,1.41,3.382,0.051,2.354-1.376c-1.058-1.469-2.156-2.906-3.241-4.354c1.438-0.011,2.875-0.035,4.313-0.075
		C173.884,58.989,173.891,56.263,172.133,56.312z"/>
	<path d="M128.522,83.426c-1.091,0.03-2.183,0.046-3.273,0.052c0.891-1.175,1.766-2.363,2.609-3.574
		c0.685-0.982-0.923-1.911-1.603-0.937c-0.529,0.759-1.067,1.509-1.615,2.253c0.102-2.026,0.202-4.052,0.305-6.078
		c0.059-1.194-1.798-1.191-1.856,0c-0.109,2.173-0.218,4.347-0.326,6.521c-0.777-0.985-1.547-1.978-2.345-2.948
		c-0.759-0.923-2.064,0.396-1.313,1.313c0.928,1.128,1.826,2.277,2.726,3.427c-1.848-0.032-3.695-0.095-5.543-0.197
		c-1.194-0.066-1.19,1.791,0,1.856c1.729,0.096,3.457,0.154,5.186,0.188c-0.693,0.853-1.396,1.699-2.117,2.532
		c-0.778,0.899,0.529,2.218,1.313,1.313c0.619-0.716,1.229-1.439,1.829-2.169c-0.115,2.289-0.229,4.577-0.344,6.866
		c-0.059,1.194,1.797,1.19,1.857,0c0.117-2.354,0.234-4.708,0.352-7.063c0.609,0.818,1.23,1.626,1.827,2.455
		c0.692,0.96,2.303,0.035,1.603-0.937c-0.72-1-1.468-1.979-2.207-2.965c0.979-0.007,1.957-0.023,2.937-0.051
		C129.715,85.249,129.72,83.393,128.522,83.426z"/>
	<path d="M248.091,76.103c-1.091,0.03-2.183,0.046-3.273,0.052c0.891-1.175,1.766-2.362,2.61-3.573
		c0.685-0.982-0.924-1.911-1.604-0.937c-0.528,0.758-1.066,1.509-1.615,2.252c0.102-2.026,0.203-4.051,0.305-6.077
		c0.059-1.194-1.797-1.191-1.856,0c-0.108,2.173-0.218,4.347-0.326,6.521c-0.777-0.986-1.547-1.978-2.344-2.948
		c-0.759-0.923-2.065,0.396-1.313,1.313c0.928,1.128,1.827,2.278,2.726,3.427c-1.847-0.033-3.695-0.095-5.543-0.197
		c-1.193-0.066-1.189,1.79,0,1.856c1.729,0.095,3.458,0.154,5.187,0.188c-0.693,0.853-1.397,1.699-2.118,2.532
		c-0.777,0.899,0.529,2.218,1.313,1.313c0.619-0.716,1.228-1.439,1.828-2.169c-0.114,2.289-0.229,4.577-0.343,6.865
		c-0.06,1.194,1.796,1.191,1.856,0c0.117-2.354,0.234-4.708,0.352-7.063c0.61,0.817,1.231,1.626,1.828,2.454
		c0.691,0.96,2.303,0.035,1.602-0.937c-0.72-1-1.468-1.979-2.207-2.965c0.979-0.008,1.957-0.024,2.937-0.051
		C249.283,77.926,249.288,76.07,248.091,76.103z"/>
	<path d="M137.979,309.324c-1.092,0.03-2.183,0.047-3.273,0.053c0.891-1.175,1.765-2.362,2.61-3.573
		c0.685-0.982-0.924-1.911-1.604-0.938c-0.528,0.759-1.067,1.509-1.615,2.253c0.102-2.026,0.202-4.052,0.304-6.077
		c0.06-1.194-1.797-1.191-1.856,0c-0.108,2.173-0.217,4.347-0.325,6.521c-0.777-0.986-1.548-1.978-2.345-2.948
		c-0.759-0.924-2.064,0.396-1.313,1.313c0.928,1.128,1.826,2.277,2.726,3.427c-1.848-0.032-3.695-0.095-5.543-0.196
		c-1.193-0.066-1.19,1.79,0,1.855c1.729,0.096,3.457,0.154,5.187,0.188c-0.694,0.854-1.397,1.699-2.118,2.531
		c-0.778,0.899,0.528,2.218,1.313,1.313c0.619-0.716,1.229-1.439,1.829-2.17c-0.115,2.289-0.229,4.577-0.344,6.866
		c-0.06,1.193,1.797,1.19,1.856,0c0.118-2.354,0.235-4.709,0.353-7.063c0.609,0.817,1.23,1.626,1.828,2.454
		c0.691,0.961,2.302,0.035,1.602-0.937c-0.72-1-1.468-1.979-2.207-2.965c0.979-0.008,1.957-0.023,2.937-0.051
		C139.172,311.147,139.177,309.291,137.979,309.324z"/>
	<path d="M350.021,227.626c-1.091,0.03-2.183,0.046-3.273,0.052c0.891-1.175,1.765-2.362,2.61-3.573
		c0.684-0.981-0.924-1.911-1.604-0.937c-0.528,0.758-1.067,1.509-1.615,2.252c0.102-2.025,0.202-4.052,0.304-6.077
		c0.06-1.194-1.797-1.19-1.856,0c-0.108,2.174-0.217,4.347-0.325,6.521c-0.777-0.985-1.547-1.978-2.345-2.948
		c-0.759-0.923-2.064,0.396-1.313,1.313c0.928,1.129,1.826,2.277,2.726,3.428c-1.848-0.033-3.695-0.096-5.543-0.197
		c-1.193-0.065-1.19,1.79,0,1.856c1.729,0.095,3.457,0.153,5.186,0.188c-0.693,0.854-1.396,1.699-2.117,2.532
		c-0.778,0.899,0.529,2.218,1.313,1.313c0.619-0.716,1.228-1.439,1.829-2.169c-0.115,2.288-0.229,4.576-0.344,6.865
		c-0.06,1.193,1.797,1.19,1.857,0c0.116-2.354,0.234-4.709,0.352-7.063c0.609,0.817,1.23,1.626,1.828,2.454
		c0.691,0.96,2.302,0.035,1.602-0.937c-0.72-1.001-1.468-1.979-2.207-2.965c0.979-0.008,1.957-0.024,2.937-0.052
		C351.213,229.449,351.218,227.593,350.021,227.626z"/>
	<path d="M89.361,186.991c-1.619,0.212-3.235,0.346-4.851,0.438c1.214-1.524,2.423-3.053,3.641-4.574
		c1.087-1.356-0.83-3.297-1.927-1.927c-0.94,1.173-1.872,2.353-2.809,3.529c0.166-4.71,0.373-9.42,0.662-14.127
		c0.107-1.752-2.619-1.746-2.727,0c-0.286,4.672-0.492,9.346-0.658,14.021c-1.058-1.557-2.128-3.105-3.227-4.636
		c-1.016-1.412-3.381-0.052-2.354,1.376c1.518,2.113,2.988,4.257,4.426,6.422c-2.24-0.042-4.482-0.17-6.73-0.443
		c-1.737-0.211-1.723,2.517,0,2.726c2.011,0.244,4.017,0.363,6.021,0.423c-1.227,1.544-2.457,3.086-3.685,4.629
		c-1.081,1.359,0.835,3.3,1.927,1.927c1.131-1.421,2.264-2.841,3.394-4.263c-0.099,4.853-0.15,9.707-0.118,14.563
		c0.011,1.753,2.736,1.757,2.725,0c-0.029-4.633,0.018-9.264,0.107-13.894c0.624,1.008,1.247,2.018,1.855,3.038
		c0.897,1.505,3.255,0.136,2.354-1.375c-0.941-1.578-1.909-3.138-2.889-4.689c1.618-0.092,3.238-0.226,4.861-0.438
		C91.075,189.493,91.098,186.764,89.361,186.991z"/>
	<path d="M359.195,166.846c-1.619,0.212-3.235,0.346-4.852,0.438c1.215-1.525,2.424-3.054,3.642-4.575
		c1.086-1.356-0.83-3.297-1.927-1.927c-0.94,1.173-1.872,2.354-2.809,3.529c0.165-4.71,0.373-9.419,0.661-14.127
		c0.108-1.751-2.618-1.745-2.726,0c-0.286,4.672-0.492,9.346-0.658,14.021c-1.058-1.558-2.128-3.106-3.228-4.636
		c-1.015-1.412-3.38-0.053-2.354,1.375c1.519,2.113,2.988,4.257,4.427,6.422c-2.241-0.043-4.482-0.17-6.73-0.443
		c-1.738-0.211-1.723,2.517,0,2.726c2.011,0.244,4.017,0.364,6.021,0.424c-1.228,1.544-2.457,3.086-3.686,4.629
		c-1.081,1.359,0.836,3.301,1.928,1.928c1.131-1.421,2.264-2.841,3.394-4.264c-0.099,4.853-0.151,9.707-0.119,14.564
		c0.012,1.753,2.737,1.757,2.726,0c-0.03-4.633,0.018-9.264,0.106-13.894c0.625,1.008,1.247,2.018,1.855,3.037
		c0.898,1.505,3.255,0.136,2.354-1.375c-0.94-1.578-1.908-3.137-2.889-4.688c1.619-0.092,3.238-0.226,4.862-0.438
		C360.908,169.347,360.932,166.619,359.195,166.846z"/>
	<path d="M165.354,374.448c-0.818,0.02-1.635,0.052-2.452,0.075c1.04-1.122,2.081-2.243,3.121-3.364
		c1.192-1.285-0.731-3.217-1.927-1.928c-1.196,1.289-2.393,2.578-3.589,3.868c0.071-2.889,0.11-5.777,0.086-8.67
		c-0.015-1.753-2.74-1.758-2.726,0c0.021,2.559-0.008,5.114-0.062,7.668c-0.944-1.237-1.901-2.465-2.886-3.674
		c-1.107-1.361-3.025,0.577-1.927,1.927c1.169,1.438,2.297,2.905,3.405,4.386c-2.262,0.09-4.525,0.187-6.787,0.303
		c-1.746,0.09-1.756,2.816,0,2.726c2.283-0.117,4.565-0.215,6.85-0.305c-1.145,1.233-2.29,2.468-3.436,3.702
		c-1.191,1.284,0.731,3.216,1.928,1.927c0.851-0.917,1.702-1.834,2.553-2.751c-0.131,2.507-0.284,5.014-0.487,7.52
		c-0.142,1.748,2.585,1.738,2.726,0c0.209-2.578,0.365-5.156,0.498-7.734c0.545,0.803,1.088,1.606,1.617,2.421
		c0.951,1.466,3.313,0.102,2.354-1.375c-0.852-1.311-1.729-2.601-2.62-3.88c1.254-0.038,2.507-0.086,3.761-0.115
		C167.104,377.133,167.111,374.407,165.354,374.448z"/>
	<path d="M277.699,340.56c-0.817,0.02-1.635,0.052-2.452,0.075c1.04-1.122,2.081-2.243,3.121-3.364
		c1.192-1.285-0.73-3.217-1.927-1.928c-1.197,1.289-2.393,2.578-3.589,3.868c0.071-2.889,0.11-5.777,0.087-8.67
		c-0.016-1.753-2.74-1.758-2.726,0c0.021,2.559-0.009,5.113-0.062,7.668c-0.945-1.237-1.902-2.465-2.887-3.674
		c-1.107-1.361-3.024,0.577-1.927,1.927c1.169,1.438,2.298,2.905,3.405,4.386c-2.262,0.09-4.525,0.186-6.787,0.303
		c-1.746,0.09-1.756,2.816,0,2.726c2.283-0.118,4.566-0.215,6.85-0.305c-1.145,1.233-2.29,2.468-3.435,3.702
		c-1.192,1.284,0.731,3.216,1.927,1.927c0.851-0.917,1.702-1.834,2.553-2.751c-0.131,2.507-0.284,5.014-0.486,7.52
		c-0.143,1.748,2.584,1.738,2.725,0c0.209-2.578,0.365-5.156,0.498-7.734c0.545,0.803,1.088,1.606,1.617,2.421
		c0.951,1.466,3.313,0.102,2.354-1.376c-0.851-1.31-1.729-2.6-2.62-3.879c1.253-0.038,2.507-0.086,3.761-0.115
		C279.45,343.244,279.457,340.519,277.699,340.56z"/>
	<path d="M311.135,108.837c-3.166,0.3-6.334,0.601-9.501,0.901c1.638-2.718,3.274-5.437,4.911-8.155
		c0.908-1.507-1.447-2.878-2.354-1.376c-1.385,2.3-2.77,4.6-4.154,6.899c-0.229-3.388-0.458-6.775-0.687-10.163
		c-0.117-1.741-2.844-1.754-2.726,0c0.241,3.579,0.483,7.157,0.726,10.735c-0.947-1.138-1.882-2.284-2.842-3.411
		c-1.139-1.338-3.059,0.598-1.927,1.927c1.147,1.348,2.269,2.716,3.397,4.079c-2.748,0.261-5.497,0.521-8.245,0.782
		c-1.731,0.164-1.749,2.892,0,2.726c2.928-0.278,5.855-0.556,8.783-0.833c-1.836,3.049-3.673,6.099-5.51,9.148
		c-0.906,1.507,1.449,2.878,2.354,1.375c1.516-2.515,3.031-5.031,4.545-7.546c0.236,3.49,0.473,6.979,0.708,10.47
		c0.118,1.741,2.844,1.754,2.726,0c-0.234-3.462-0.468-6.924-0.701-10.386c0.879,1.103,1.771,2.197,2.639,3.311
		c1.077,1.382,2.994-0.56,1.928-1.928c-1.284-1.646-2.595-3.271-3.904-4.897c3.278-0.311,6.557-0.622,9.834-0.933
		C312.866,111.398,312.884,108.671,311.135,108.837z"/>
</g>
</svg>
